<?xml version="1.0" encoding="utf-8" standalone="no"?>
<!DOCTYPE svg PUBLIC "-//W3C//DTD SVG 1.1//EN"
  "http://www.w3.org/Graphics/SVG/1.1/DTD/svg11.dtd">
<svg xmlns:xlink="http://www.w3.org/1999/xlink" width="1080pt" height="720pt" viewBox="0 0 1080 720" xmlns="http://www.w3.org/2000/svg" version="1.1">
 <metadata>
  <rdf:RDF xmlns:dc="http://purl.org/dc/elements/1.1/" xmlns:cc="http://creativecommons.org/ns#" xmlns:rdf="http://www.w3.org/1999/02/22-rdf-syntax-ns#">
   <cc:Work>
    <dc:type rdf:resource="http://purl.org/dc/dcmitype/StillImage"/>
    <dc:date>2024-03-16T17:12:49.678214</dc:date>
    <dc:format>image/svg+xml</dc:format>
    <dc:creator>
     <cc:Agent>
      <dc:title>Matplotlib v3.8.3, https://matplotlib.org/</dc:title>
     </cc:Agent>
    </dc:creator>
   </cc:Work>
  </rdf:RDF>
 </metadata>
 <defs>
  <style type="text/css">*{stroke-linejoin: round; stroke-linecap: butt}</style>
 </defs>
 <g id="figure_1">
  <g id="patch_1">
   <path d="M 0 720 
L 1080 720 
L 1080 0 
L 0 0 
z
" style="fill: #ffffff"/>
  </g>
  <g id="axes_1">
   <g id="PatchCollection_1">
    <path d="M 982.60363 89.784243 
L 1021.090909 106.691922 
L 1021.090909 141.65565 
L 982.60363 159.71936 
L 944.116364 141.65565 
L 944.116364 106.691922 
L 982.60363 89.784243 
" clip-path="url(#p06f6f108af)" style="fill: #3b4cc0"/>
    <path d="M 982.60363 197.026995 
L 1021.090909 216.276338 
L 1021.090909 255.976298 
L 982.60363 276.429475 
L 944.116364 255.976298 
L 944.116364 216.276338 
L 982.60363 197.026995 
" clip-path="url(#p06f6f108af)" style="fill: #3b4cc0"/>
    <path d="M 867.141819 141.65565 
L 905.629085 159.71936 
L 905.629085 197.026995 
L 867.141819 216.276338 
L 828.65454 197.026995 
L 828.65454 159.71936 
L 867.141819 141.65565 
" clip-path="url(#p06f6f108af)" style="fill: #3b4cc0"/>
    <path d="M 443.781815 454.466081 
L 482.269095 478.483742 
L 482.269095 527.640842 
L 443.781815 552.76548 
L 405.29455 527.640842 
L 405.29455 478.483742 
L 443.781815 454.466081 
" clip-path="url(#p06f6f108af)" style="fill: #b40426"/>
    <path d="M 713.19273 384.727254 
L 751.679995 407.582997 
L 751.679995 454.466081 
L 713.19273 478.483742 
L 674.70545 454.466081 
L 674.70545 407.582997 
L 713.19273 384.727254 
" clip-path="url(#p06f6f108af)" style="fill: #b40426"/>
    <path d="M 751.679995 318.54454 
L 790.167274 340.205531 
L 790.167274 384.727254 
L 751.679995 407.582997 
L 713.19273 384.727254 
L 713.19273 340.205531 
L 751.679995 318.54454 
" clip-path="url(#p06f6f108af)" style="fill: #3b4cc0"/>
    <path d="M 674.70545 318.54454 
L 713.19273 340.205531 
L 713.19273 384.727254 
L 674.70545 407.582997 
L 636.218185 384.727254 
L 636.218185 340.205531 
L 674.70545 318.54454 
" clip-path="url(#p06f6f108af)" style="fill: #b40426"/>
    <path d="M 251.34546 384.727254 
L 289.832726 407.582997 
L 289.832726 454.466081 
L 251.34546 478.483742 
L 212.858181 454.466081 
L 212.858181 407.582997 
L 251.34546 384.727254 
" clip-path="url(#p06f6f108af)" style="fill: #3b4cc0"/>
    <path d="M 482.269095 384.727254 
L 520.75636 407.582997 
L 520.75636 454.466081 
L 482.269095 478.483742 
L 443.781815 454.466081 
L 443.781815 407.582997 
L 482.269095 384.727254 
" clip-path="url(#p06f6f108af)" style="fill: #b40426"/>
    <path d="M 597.730905 318.54454 
L 636.218185 340.205531 
L 636.218185 384.727254 
L 597.730905 407.582997 
L 559.24364 384.727254 
L 559.24364 340.205531 
L 597.730905 318.54454 
" clip-path="url(#p06f6f108af)" style="fill: #b40426"/>
    <path d="M 828.65454 318.54454 
L 867.141819 340.205531 
L 867.141819 384.727254 
L 828.65454 407.582997 
L 790.167274 384.727254 
L 790.167274 340.205531 
L 828.65454 318.54454 
" clip-path="url(#p06f6f108af)" style="fill: #3b4cc0"/>
    <path d="M 520.75636 318.54454 
L 559.24364 340.205531 
L 559.24364 384.727254 
L 520.75636 407.582997 
L 482.269095 384.727254 
L 482.269095 340.205531 
L 520.75636 318.54454 
" clip-path="url(#p06f6f108af)" style="fill: #b40426"/>
    <path d="M 443.781815 318.54454 
L 482.269095 340.205531 
L 482.269095 384.727254 
L 443.781815 407.582997 
L 405.29455 384.727254 
L 405.29455 340.205531 
L 443.781815 318.54454 
" clip-path="url(#p06f6f108af)" style="fill: #b40426"/>
    <path d="M 405.29455 384.727254 
L 443.781815 407.582997 
L 443.781815 454.466081 
L 405.29455 478.483742 
L 366.80727 454.466081 
L 366.80727 407.582997 
L 405.29455 384.727254 
" clip-path="url(#p06f6f108af)" style="fill: #3b4cc0"/>
    <path d="M 790.167274 384.727254 
L 828.65454 407.582997 
L 828.65454 454.466081 
L 790.167274 478.483742 
L 751.679995 454.466081 
L 751.679995 407.582997 
L 790.167274 384.727254 
" clip-path="url(#p06f6f108af)" style="fill: #b40426"/>
    <path d="M 636.218185 384.727254 
L 674.70545 407.582997 
L 674.70545 454.466081 
L 636.218185 478.483742 
L 597.730905 454.466081 
L 597.730905 407.582997 
L 636.218185 384.727254 
" clip-path="url(#p06f6f108af)" style="fill: #b40426"/>
    <path d="M 482.269095 255.976298 
L 520.75636 276.429475 
L 520.75636 318.54454 
L 482.269095 340.205531 
L 443.781815 318.54454 
L 443.781815 276.429475 
L 482.269095 255.976298 
" clip-path="url(#p06f6f108af)" style="fill: #b40426"/>
    <path d="M 289.832726 318.54454 
L 328.320005 340.205531 
L 328.320005 384.727254 
L 289.832726 407.582997 
L 251.34546 384.727254 
L 251.34546 340.205531 
L 289.832726 318.54454 
" clip-path="url(#p06f6f108af)" style="fill: #3b4cc0"/>
    <path d="M 867.141819 255.976298 
L 905.629085 276.429475 
L 905.629085 318.54454 
L 867.141819 340.205531 
L 828.65454 318.54454 
L 828.65454 276.429475 
L 867.141819 255.976298 
" clip-path="url(#p06f6f108af)" style="fill: #3b4cc0"/>
    <path d="M 405.29455 255.976298 
L 443.781815 276.429475 
L 443.781815 318.54454 
L 405.29455 340.205531 
L 366.80727 318.54454 
L 366.80727 276.429475 
L 405.29455 255.976298 
" clip-path="url(#p06f6f108af)" style="fill: #b40426"/>
    <path d="M 713.19273 255.976298 
L 751.679995 276.429475 
L 751.679995 318.54454 
L 713.19273 340.205531 
L 674.70545 318.54454 
L 674.70545 276.429475 
L 713.19273 255.976298 
" clip-path="url(#p06f6f108af)" style="fill: #b40426"/>
    <path d="M 328.320005 255.976298 
L 366.80727 276.429475 
L 366.80727 318.54454 
L 328.320005 340.205531 
L 289.832726 318.54454 
L 289.832726 276.429475 
L 328.320005 255.976298 
" clip-path="url(#p06f6f108af)" style="fill: #b40426"/>
    <path d="M 867.141819 384.727254 
L 905.629085 407.582997 
L 905.629085 454.466081 
L 867.141819 478.483742 
L 828.65454 454.466081 
L 828.65454 407.582997 
L 867.141819 384.727254 
" clip-path="url(#p06f6f108af)" style="fill: #3b4cc0"/>
    <path d="M 905.629085 318.54454 
L 944.116364 340.205531 
L 944.116364 384.727254 
L 905.629085 407.582997 
L 867.141819 384.727254 
L 867.141819 340.205531 
L 905.629085 318.54454 
" clip-path="url(#p06f6f108af)" style="fill: #3b4cc0"/>
    <path d="M 713.19273 527.640842 
L 751.679995 552.76548 
L 751.679995 604.063057 
L 713.19273 630.215757 
L 674.70545 604.063057 
L 674.70545 552.76548 
L 713.19273 527.640842 
" clip-path="url(#p06f6f108af)" style="fill: #b40426"/>
    <path d="M 944.116364 141.65565 
L 982.60363 159.71936 
L 982.60363 197.026995 
L 944.116364 216.276338 
L 905.629085 197.026995 
L 905.629085 159.71936 
L 944.116364 141.65565 
" clip-path="url(#p06f6f108af)" style="fill: #3b4cc0"/>
    <path d="M 97.39637 527.640842 
L 135.883636 552.76548 
L 135.883636 604.063057 
L 97.39637 630.215757 
L 58.909091 604.063057 
L 58.909091 552.76548 
L 97.39637 527.640842 
" clip-path="url(#p06f6f108af)" style="fill: #3b4cc0"/>
    <path d="M 482.269095 527.640842 
L 520.75636 552.76548 
L 520.75636 604.063057 
L 482.269095 630.215757 
L 443.781815 604.063057 
L 443.781815 552.76548 
L 482.269095 527.640842 
" clip-path="url(#p06f6f108af)" style="fill: #b40426"/>
    <path d="M 674.70545 454.466081 
L 713.19273 478.483742 
L 713.19273 527.640842 
L 674.70545 552.76548 
L 636.218185 527.640842 
L 636.218185 478.483742 
L 674.70545 454.466081 
" clip-path="url(#p06f6f108af)" style="fill: #b40426"/>
    <path d="M 366.80727 454.466081 
L 405.29455 478.483742 
L 405.29455 527.640842 
L 366.80727 552.76548 
L 328.320005 527.640842 
L 328.320005 478.483742 
L 366.80727 454.466081 
" clip-path="url(#p06f6f108af)" style="fill: #3b4cc0"/>
    <path d="M 751.679995 454.466081 
L 790.167274 478.483742 
L 790.167274 527.640842 
L 751.679995 552.76548 
L 713.19273 527.640842 
L 713.19273 478.483742 
L 751.679995 454.466081 
" clip-path="url(#p06f6f108af)" style="fill: #3b4cc0"/>
    <path d="M 520.75636 454.466081 
L 559.24364 478.483742 
L 559.24364 527.640842 
L 520.75636 552.76548 
L 482.269095 527.640842 
L 482.269095 478.483742 
L 520.75636 454.466081 
" clip-path="url(#p06f6f108af)" style="fill: #b40426"/>
    <path d="M 597.730905 454.466081 
L 636.218185 478.483742 
L 636.218185 527.640842 
L 597.730905 552.76548 
L 559.24364 527.640842 
L 559.24364 478.483742 
L 597.730905 454.466081 
" clip-path="url(#p06f6f108af)" style="fill: #b40426"/>
    <path d="M 328.320005 384.727254 
L 366.80727 407.582997 
L 366.80727 454.466081 
L 328.320005 478.483742 
L 289.832726 454.466081 
L 289.832726 407.582997 
L 328.320005 384.727254 
" clip-path="url(#p06f6f108af)" style="fill: #b40426"/>
    <path d="M 366.80727 318.54454 
L 405.29455 340.205531 
L 405.29455 384.727254 
L 366.80727 407.582997 
L 328.320005 384.727254 
L 328.320005 340.205531 
L 366.80727 318.54454 
" clip-path="url(#p06f6f108af)" style="fill: #3b4cc0"/>
    <path d="M 559.24364 384.727254 
L 597.730905 407.582997 
L 597.730905 454.466081 
L 559.24364 478.483742 
L 520.75636 454.466081 
L 520.75636 407.582997 
L 559.24364 384.727254 
" clip-path="url(#p06f6f108af)" style="fill: #b40426"/>
    <path d="M 251.34546 255.976298 
L 289.832726 276.429475 
L 289.832726 318.54454 
L 251.34546 340.205531 
L 212.858181 318.54454 
L 212.858181 276.429475 
L 251.34546 255.976298 
" clip-path="url(#p06f6f108af)" style="fill: #b40426"/>
    <path d="M 212.858181 318.54454 
L 251.34546 340.205531 
L 251.34546 384.727254 
L 212.858181 407.582997 
L 174.370915 384.727254 
L 174.370915 340.205531 
L 212.858181 318.54454 
" clip-path="url(#p06f6f108af)" style="fill: #3b4cc0"/>
    <path d="M 559.24364 255.976298 
L 597.730905 276.429475 
L 597.730905 318.54454 
L 559.24364 340.205531 
L 520.75636 318.54454 
L 520.75636 276.429475 
L 559.24364 255.976298 
" clip-path="url(#p06f6f108af)" style="fill: #3b4cc0"/>
    <path d="M 790.167274 255.976298 
L 828.65454 276.429475 
L 828.65454 318.54454 
L 790.167274 340.205531 
L 751.679995 318.54454 
L 751.679995 276.429475 
L 790.167274 255.976298 
" clip-path="url(#p06f6f108af)" style="fill: #3b4cc0"/>
    <path d="M 636.218185 255.976298 
L 674.70545 276.429475 
L 674.70545 318.54454 
L 636.218185 340.205531 
L 597.730905 318.54454 
L 597.730905 276.429475 
L 636.218185 255.976298 
" clip-path="url(#p06f6f108af)" style="fill: #b40426"/>
    <path d="M 828.65454 197.026995 
L 867.141819 216.276338 
L 867.141819 255.976298 
L 828.65454 276.429475 
L 790.167274 255.976298 
L 790.167274 216.276338 
L 828.65454 197.026995 
" clip-path="url(#p06f6f108af)" style="fill: #3b4cc0"/>
    <path d="M 212.858181 197.026995 
L 251.34546 216.276338 
L 251.34546 255.976298 
L 212.858181 276.429475 
L 174.370915 255.976298 
L 174.370915 216.276338 
L 212.858181 197.026995 
" clip-path="url(#p06f6f108af)" style="fill: #3b4cc0"/>
    <path d="M 520.75636 197.026995 
L 559.24364 216.276338 
L 559.24364 255.976298 
L 520.75636 276.429475 
L 482.269095 255.976298 
L 482.269095 216.276338 
L 520.75636 197.026995 
" clip-path="url(#p06f6f108af)" style="fill: #3b4cc0"/>
    <path d="M 905.629085 197.026995 
L 944.116364 216.276338 
L 944.116364 255.976298 
L 905.629085 276.429475 
L 867.141819 255.976298 
L 867.141819 216.276338 
L 905.629085 197.026995 
" clip-path="url(#p06f6f108af)" style="fill: #3b4cc0"/>
    <path d="M 674.70545 197.026995 
L 713.19273 216.276338 
L 713.19273 255.976298 
L 674.70545 276.429475 
L 636.218185 255.976298 
L 636.218185 216.276338 
L 674.70545 197.026995 
" clip-path="url(#p06f6f108af)" style="fill: #3b4cc0"/>
    <path d="M 443.781815 197.026995 
L 482.269095 216.276338 
L 482.269095 255.976298 
L 443.781815 276.429475 
L 405.29455 255.976298 
L 405.29455 216.276338 
L 443.781815 197.026995 
" clip-path="url(#p06f6f108af)" style="fill: #3b4cc0"/>
    <path d="M 289.832726 197.026995 
L 328.320005 216.276338 
L 328.320005 255.976298 
L 289.832726 276.429475 
L 251.34546 255.976298 
L 251.34546 216.276338 
L 289.832726 197.026995 
" clip-path="url(#p06f6f108af)" style="fill: #b40426"/>
    <path d="M 366.80727 197.026995 
L 405.29455 216.276338 
L 405.29455 255.976298 
L 366.80727 276.429475 
L 328.320005 255.976298 
L 328.320005 216.276338 
L 366.80727 197.026995 
" clip-path="url(#p06f6f108af)" style="fill: #b40426"/>
    <path d="M 135.883636 89.784243 
L 174.370915 106.691922 
L 174.370915 141.65565 
L 135.883636 159.71936 
L 97.39637 141.65565 
L 97.39637 106.691922 
L 135.883636 89.784243 
" clip-path="url(#p06f6f108af)" style="fill: #b40426"/>
    <path d="M 944.116364 255.976298 
L 982.60363 276.429475 
L 982.60363 318.54454 
L 944.116364 340.205531 
L 905.629085 318.54454 
L 905.629085 276.429475 
L 944.116364 255.976298 
" clip-path="url(#p06f6f108af)" style="fill: #3b4cc0"/>
   </g>
   <g id="text_1">
    <!-- ME -->
    <g transform="translate(975.130198 127.254285) scale(0.1 -0.1)">
     <defs>
      <path id="DejaVuSans-4d" d="M 628 4666 
L 1569 4666 
L 2759 1491 
L 3956 4666 
L 4897 4666 
L 4897 0 
L 4281 0 
L 4281 4097 
L 3078 897 
L 2444 897 
L 1241 4097 
L 1241 0 
L 628 0 
L 628 4666 
z
" transform="scale(0.015625)"/>
      <path id="DejaVuSans-45" d="M 628 4666 
L 3578 4666 
L 3578 4134 
L 1259 4134 
L 1259 2753 
L 3481 2753 
L 3481 2222 
L 1259 2222 
L 1259 531 
L 3634 531 
L 3634 0 
L 628 0 
L 628 4666 
z
" transform="scale(0.015625)"/>
     </defs>
     <use xlink:href="#DejaVuSans-4d"/>
     <use xlink:href="#DejaVuSans-45" x="86.279297"/>
    </g>
   </g>
   <g id="text_2">
    <!-- RI -->
    <g transform="translate(977.654417 239.220093) scale(0.1 -0.1)">
     <defs>
      <path id="DejaVuSans-52" d="M 2841 2188 
Q 3044 2119 3236 1894 
Q 3428 1669 3622 1275 
L 4263 0 
L 3584 0 
L 2988 1197 
Q 2756 1666 2539 1819 
Q 2322 1972 1947 1972 
L 1259 1972 
L 1259 0 
L 628 0 
L 628 4666 
L 2053 4666 
Q 2853 4666 3247 4331 
Q 3641 3997 3641 3322 
Q 3641 2881 3436 2590 
Q 3231 2300 2841 2188 
z
M 1259 4147 
L 1259 2491 
L 2053 2491 
Q 2509 2491 2742 2702 
Q 2975 2913 2975 3322 
Q 2975 3731 2742 3939 
Q 2509 4147 2053 4147 
L 1259 4147 
z
" transform="scale(0.015625)"/>
      <path id="DejaVuSans-49" d="M 628 4666 
L 1259 4666 
L 1259 0 
L 628 0 
L 628 4666 
z
" transform="scale(0.015625)"/>
     </defs>
     <use xlink:href="#DejaVuSans-52"/>
     <use xlink:href="#DejaVuSans-49" x="69.482422"/>
    </g>
   </g>
   <g id="text_3">
    <!-- VT -->
    <g transform="translate(860.667594 181.461898) scale(0.1 -0.1)">
     <defs>
      <path id="DejaVuSans-56" d="M 1831 0 
L 50 4666 
L 709 4666 
L 2188 738 
L 3669 4666 
L 4325 4666 
L 2547 0 
L 1831 0 
z
" transform="scale(0.015625)"/>
      <path id="DejaVuSans-54" d="M -19 4666 
L 3928 4666 
L 3928 4134 
L 2272 4134 
L 2272 0 
L 1638 0 
L 1638 4134 
L -19 4134 
L -19 4666 
z
" transform="scale(0.015625)"/>
     </defs>
     <use xlink:href="#DejaVuSans-56"/>
     <use xlink:href="#DejaVuSans-54" x="68.408203"/>
    </g>
   </g>
   <g id="text_4">
    <!-- OK -->
    <g transform="translate(436.566978 506.129154) scale(0.1 -0.1)">
     <defs>
      <path id="DejaVuSans-4f" d="M 2522 4238 
Q 1834 4238 1429 3725 
Q 1025 3213 1025 2328 
Q 1025 1447 1429 934 
Q 1834 422 2522 422 
Q 3209 422 3611 934 
Q 4013 1447 4013 2328 
Q 4013 3213 3611 3725 
Q 3209 4238 2522 4238 
z
M 2522 4750 
Q 3503 4750 4090 4092 
Q 4678 3434 4678 2328 
Q 4678 1225 4090 567 
Q 3503 -91 2522 -91 
Q 1538 -91 948 565 
Q 359 1222 359 2328 
Q 359 3434 948 4092 
Q 1538 4750 2522 4750 
z
" transform="scale(0.015625)"/>
      <path id="DejaVuSans-4b" d="M 628 4666 
L 1259 4666 
L 1259 2694 
L 3353 4666 
L 4166 4666 
L 1850 2491 
L 4331 0 
L 3500 0 
L 1259 2247 
L 1259 0 
L 628 0 
L 628 4666 
z
" transform="scale(0.015625)"/>
     </defs>
     <use xlink:href="#DejaVuSans-4f"/>
     <use xlink:href="#DejaVuSans-4b" x="78.710938"/>
    </g>
   </g>
   <g id="text_5">
    <!-- NC -->
    <g transform="translate(705.960692 434.106664) scale(0.1 -0.1)">
     <defs>
      <path id="DejaVuSans-4e" d="M 628 4666 
L 1478 4666 
L 3547 763 
L 3547 4666 
L 4159 4666 
L 4159 0 
L 3309 0 
L 1241 3903 
L 1241 0 
L 628 0 
L 628 4666 
z
" transform="scale(0.015625)"/>
      <path id="DejaVuSans-43" d="M 4122 4306 
L 4122 3641 
Q 3803 3938 3442 4084 
Q 3081 4231 2675 4231 
Q 1875 4231 1450 3742 
Q 1025 3253 1025 2328 
Q 1025 1406 1450 917 
Q 1875 428 2675 428 
Q 3081 428 3442 575 
Q 3803 722 4122 1019 
L 4122 359 
Q 3791 134 3420 21 
Q 3050 -91 2638 -91 
Q 1578 -91 968 557 
Q 359 1206 359 2328 
Q 359 3453 968 4101 
Q 1578 4750 2638 4750 
Q 3056 4750 3426 4639 
Q 3797 4528 4122 4306 
z
" transform="scale(0.015625)"/>
     </defs>
     <use xlink:href="#DejaVuSans-4e"/>
     <use xlink:href="#DejaVuSans-43" x="74.804688"/>
    </g>
   </g>
   <g id="text_6">
    <!-- VA -->
    <g transform="translate(745.158126 365.55764) scale(0.1 -0.1)">
     <defs>
      <path id="DejaVuSans-41" d="M 2188 4044 
L 1331 1722 
L 3047 1722 
L 2188 4044 
z
M 1831 4666 
L 2547 4666 
L 4325 0 
L 3669 0 
L 3244 1197 
L 1141 1197 
L 716 0 
L 50 0 
L 1831 4666 
z
" transform="scale(0.015625)"/>
     </defs>
     <use xlink:href="#DejaVuSans-56"/>
     <use xlink:href="#DejaVuSans-41" x="62.033203"/>
    </g>
   </g>
   <g id="text_7">
    <!-- WV -->
    <g transform="translate(666.341394 365.55764) scale(0.1 -0.1)">
     <defs>
      <path id="DejaVuSans-57" d="M 213 4666 
L 850 4666 
L 1831 722 
L 2809 4666 
L 3519 4666 
L 4500 722 
L 5478 4666 
L 6119 4666 
L 4947 0 
L 4153 0 
L 3169 4050 
L 2175 0 
L 1381 0 
L 213 4666 
z
" transform="scale(0.015625)"/>
     </defs>
     <use xlink:href="#DejaVuSans-57"/>
     <use xlink:href="#DejaVuSans-56" x="98.876953"/>
    </g>
   </g>
   <g id="text_8">
    <!-- CA -->
    <g transform="translate(244.433735 434.106664) scale(0.1 -0.1)">
     <use xlink:href="#DejaVuSans-43"/>
     <use xlink:href="#DejaVuSans-41" x="69.824219"/>
    </g>
   </g>
   <g id="text_9">
    <!-- KS -->
    <g transform="translate(475.815964 434.106664) scale(0.1 -0.1)">
     <defs>
      <path id="DejaVuSans-53" d="M 3425 4513 
L 3425 3897 
Q 3066 4069 2747 4153 
Q 2428 4238 2131 4238 
Q 1616 4238 1336 4038 
Q 1056 3838 1056 3469 
Q 1056 3159 1242 3001 
Q 1428 2844 1947 2747 
L 2328 2669 
Q 3034 2534 3370 2195 
Q 3706 1856 3706 1288 
Q 3706 609 3251 259 
Q 2797 -91 1919 -91 
Q 1588 -91 1214 -16 
Q 841 59 441 206 
L 441 856 
Q 825 641 1194 531 
Q 1563 422 1919 422 
Q 2459 422 2753 634 
Q 3047 847 3047 1241 
Q 3047 1584 2836 1778 
Q 2625 1972 2144 2069 
L 1759 2144 
Q 1053 2284 737 2584 
Q 422 2884 422 3419 
Q 422 4038 858 4394 
Q 1294 4750 2059 4750 
Q 2388 4750 2728 4690 
Q 3069 4631 3425 4513 
z
" transform="scale(0.015625)"/>
     </defs>
     <use xlink:href="#DejaVuSans-4b"/>
     <use xlink:href="#DejaVuSans-53" x="65.576172"/>
    </g>
   </g>
   <g id="text_10">
    <!-- KY -->
    <g transform="translate(591.579349 365.55764) scale(0.1 -0.1)">
     <defs>
      <path id="DejaVuSans-59" d="M -13 4666 
L 666 4666 
L 1959 2747 
L 3244 4666 
L 3922 4666 
L 2272 2222 
L 2272 0 
L 1638 0 
L 1638 2222 
L -13 4666 
z
" transform="scale(0.015625)"/>
     </defs>
     <use xlink:href="#DejaVuSans-4b"/>
     <use xlink:href="#DejaVuSans-59" x="61.951172"/>
    </g>
   </g>
   <g id="text_11">
    <!-- MD -->
    <g transform="translate(820.490484 365.55764) scale(0.1 -0.1)">
     <defs>
      <path id="DejaVuSans-44" d="M 1259 4147 
L 1259 519 
L 2022 519 
Q 2988 519 3436 956 
Q 3884 1394 3884 2338 
Q 3884 3275 3436 3711 
Q 2988 4147 2022 4147 
L 1259 4147 
z
M 628 4666 
L 1925 4666 
Q 3281 4666 3915 4102 
Q 4550 3538 4550 2338 
Q 4550 1131 3912 565 
Q 3275 0 1925 0 
L 628 0 
L 628 4666 
z
" transform="scale(0.015625)"/>
     </defs>
     <use xlink:href="#DejaVuSans-4d"/>
     <use xlink:href="#DejaVuSans-44" x="86.279297"/>
    </g>
   </g>
   <g id="text_12">
    <!-- MO -->
    <g transform="translate(512.506367 365.55764) scale(0.1 -0.1)">
     <use xlink:href="#DejaVuSans-4d"/>
     <use xlink:href="#DejaVuSans-4f" x="86.279297"/>
    </g>
   </g>
   <g id="text_13">
    <!-- NE -->
    <g transform="translate(436.881822 365.55764) scale(0.1 -0.1)">
     <use xlink:href="#DejaVuSans-4e"/>
     <use xlink:href="#DejaVuSans-45" x="74.804688"/>
    </g>
   </g>
   <g id="text_14">
    <!-- NM -->
    <g transform="translate(397.239856 434.106664) scale(0.1 -0.1)">
     <use xlink:href="#DejaVuSans-4e"/>
     <use xlink:href="#DejaVuSans-4d" x="74.804688"/>
    </g>
   </g>
   <g id="text_15">
    <!-- SC -->
    <g transform="translate(783.501643 434.106664) scale(0.1 -0.1)">
     <use xlink:href="#DejaVuSans-53"/>
     <use xlink:href="#DejaVuSans-43" x="63.476562"/>
    </g>
   </g>
   <g id="text_16">
    <!-- TN -->
    <g transform="translate(629.423647 434.106664) scale(0.1 -0.1)">
     <use xlink:href="#DejaVuSans-54"/>
     <use xlink:href="#DejaVuSans-4e" x="61.083984"/>
    </g>
   </g>
   <g id="text_17">
    <!-- IA -->
    <g transform="translate(477.373776 300.581886) scale(0.1 -0.1)">
     <use xlink:href="#DejaVuSans-49"/>
     <use xlink:href="#DejaVuSans-41" x="29.492188"/>
    </g>
   </g>
   <g id="text_18">
    <!-- NV -->
    <g transform="translate(282.671794 365.55764) scale(0.1 -0.1)">
     <use xlink:href="#DejaVuSans-4e"/>
     <use xlink:href="#DejaVuSans-56" x="74.804688"/>
    </g>
   </g>
   <g id="text_19">
    <!-- NJ -->
    <g transform="translate(861.926188 300.581886) scale(0.1 -0.1)">
     <defs>
      <path id="DejaVuSans-4a" d="M 628 4666 
L 1259 4666 
L 1259 325 
Q 1259 -519 939 -900 
Q 619 -1281 -91 -1281 
L -331 -1281 
L -331 -750 
L -134 -750 
Q 284 -750 456 -515 
Q 628 -281 628 325 
L 628 4666 
z
" transform="scale(0.015625)"/>
     </defs>
     <use xlink:href="#DejaVuSans-4e"/>
     <use xlink:href="#DejaVuSans-4a" x="74.804688"/>
    </g>
   </g>
   <g id="text_20">
    <!-- SD -->
    <g transform="translate(398.270325 300.581886) scale(0.1 -0.1)">
     <use xlink:href="#DejaVuSans-53"/>
     <use xlink:href="#DejaVuSans-44" x="63.476562"/>
    </g>
   </g>
   <g id="text_21">
    <!-- OH -->
    <g transform="translate(705.49663 300.581886) scale(0.1 -0.1)">
     <defs>
      <path id="DejaVuSans-48" d="M 628 4666 
L 1259 4666 
L 1259 2753 
L 3553 2753 
L 3553 4666 
L 4184 4666 
L 4184 0 
L 3553 0 
L 3553 2222 
L 1259 2222 
L 1259 0 
L 628 0 
L 628 4666 
z
" transform="scale(0.015625)"/>
     </defs>
     <use xlink:href="#DejaVuSans-4f"/>
     <use xlink:href="#DejaVuSans-48" x="78.710938"/>
    </g>
   </g>
   <g id="text_22">
    <!-- WY -->
    <g transform="translate(320.322343 300.581886) scale(0.1 -0.1)">
     <use xlink:href="#DejaVuSans-57"/>
     <use xlink:href="#DejaVuSans-59" x="98.876953"/>
    </g>
   </g>
   <g id="text_23">
    <!-- DC -->
    <g transform="translate(859.800407 434.106664) scale(0.1 -0.1)">
     <use xlink:href="#DejaVuSans-44"/>
     <use xlink:href="#DejaVuSans-43" x="77.001953"/>
    </g>
   </g>
   <g id="text_24">
    <!-- DE -->
    <g transform="translate(898.619716 365.55764) scale(0.1 -0.1)">
     <use xlink:href="#DejaVuSans-44"/>
     <use xlink:href="#DejaVuSans-45" x="77.001953"/>
    </g>
   </g>
   <g id="text_25">
    <!-- FL -->
    <g transform="translate(707.531005 581.459209) scale(0.1 -0.1)">
     <defs>
      <path id="DejaVuSans-46" d="M 628 4666 
L 3309 4666 
L 3309 4134 
L 1259 4134 
L 1259 2759 
L 3109 2759 
L 3109 2228 
L 1259 2228 
L 1259 0 
L 628 0 
L 628 4666 
z
" transform="scale(0.015625)"/>
      <path id="DejaVuSans-4c" d="M 628 4666 
L 1259 4666 
L 1259 531 
L 3531 531 
L 3531 0 
L 628 0 
L 628 4666 
z
" transform="scale(0.015625)"/>
     </defs>
     <use xlink:href="#DejaVuSans-46"/>
     <use xlink:href="#DejaVuSans-4c" x="57.519531"/>
    </g>
   </g>
   <g id="text_26">
    <!-- NH -->
    <g transform="translate(936.615577 181.461898) scale(0.1 -0.1)">
     <use xlink:href="#DejaVuSans-4e"/>
     <use xlink:href="#DejaVuSans-48" x="74.804688"/>
    </g>
   </g>
   <g id="text_27">
    <!-- HI -->
    <g transform="translate(92.161208 581.459209) scale(0.1 -0.1)">
     <use xlink:href="#DejaVuSans-48"/>
     <use xlink:href="#DejaVuSans-49" x="75.195312"/>
    </g>
   </g>
   <g id="text_28">
    <!-- TX -->
    <g transform="translate(475.790182 581.459209) scale(0.1 -0.1)">
     <defs>
      <path id="DejaVuSans-58" d="M 403 4666 
L 1081 4666 
L 2241 2931 
L 3406 4666 
L 4084 4666 
L 2584 2425 
L 4184 0 
L 3506 0 
L 2194 1984 
L 872 0 
L 191 0 
L 1856 2491 
L 403 4666 
z
" transform="scale(0.015625)"/>
     </defs>
     <use xlink:href="#DejaVuSans-54"/>
     <use xlink:href="#DejaVuSans-58" x="61.083984"/>
    </g>
   </g>
   <g id="text_29">
    <!-- AL -->
    <g transform="translate(668.499206 506.129154) scale(0.1 -0.1)">
     <use xlink:href="#DejaVuSans-41"/>
     <use xlink:href="#DejaVuSans-4c" x="68.408203"/>
    </g>
   </g>
   <g id="text_30">
    <!-- AZ -->
    <g transform="translate(359.961964 506.129154) scale(0.1 -0.1)">
     <defs>
      <path id="DejaVuSans-5a" d="M 359 4666 
L 4025 4666 
L 4025 4184 
L 1075 531 
L 4097 531 
L 4097 0 
L 288 0 
L 288 481 
L 3238 4134 
L 359 4134 
L 359 4666 
z
" transform="scale(0.015625)"/>
     </defs>
     <use xlink:href="#DejaVuSans-41"/>
     <use xlink:href="#DejaVuSans-5a" x="68.408203"/>
    </g>
   </g>
   <g id="text_31">
    <!-- GA -->
    <g transform="translate(744.38547 506.129154) scale(0.1 -0.1)">
     <defs>
      <path id="DejaVuSans-47" d="M 3809 666 
L 3809 1919 
L 2778 1919 
L 2778 2438 
L 4434 2438 
L 4434 434 
Q 4069 175 3628 42 
Q 3188 -91 2688 -91 
Q 1594 -91 976 548 
Q 359 1188 359 2328 
Q 359 3472 976 4111 
Q 1594 4750 2688 4750 
Q 3144 4750 3555 4637 
Q 3966 4525 4313 4306 
L 4313 3634 
Q 3963 3931 3569 4081 
Q 3175 4231 2741 4231 
Q 1884 4231 1454 3753 
Q 1025 3275 1025 2328 
Q 1025 1384 1454 906 
Q 1884 428 2741 428 
Q 3075 428 3337 486 
Q 3600 544 3809 666 
z
" transform="scale(0.015625)"/>
     </defs>
     <use xlink:href="#DejaVuSans-47"/>
     <use xlink:href="#DejaVuSans-41" x="77.490234"/>
    </g>
   </g>
   <g id="text_32">
    <!-- LA -->
    <g transform="translate(514.437617 506.129154) scale(0.1 -0.1)">
     <use xlink:href="#DejaVuSans-4c"/>
     <use xlink:href="#DejaVuSans-41" x="57.962891"/>
    </g>
   </g>
   <g id="text_33">
    <!-- MS -->
    <g transform="translate(590.24263 506.129154) scale(0.1 -0.1)">
     <use xlink:href="#DejaVuSans-4d"/>
     <use xlink:href="#DejaVuSans-53" x="86.279297"/>
    </g>
   </g>
   <g id="text_34">
    <!-- UT -->
    <g transform="translate(321.606718 434.106664) scale(0.1 -0.1)">
     <defs>
      <path id="DejaVuSans-55" d="M 556 4666 
L 1191 4666 
L 1191 1831 
Q 1191 1081 1462 751 
Q 1734 422 2344 422 
Q 2950 422 3222 751 
Q 3494 1081 3494 1831 
L 3494 4666 
L 4128 4666 
L 4128 1753 
Q 4128 841 3676 375 
Q 3225 -91 2344 -91 
Q 1459 -91 1007 375 
Q 556 841 556 1753 
L 556 4666 
z
" transform="scale(0.015625)"/>
     </defs>
     <use xlink:href="#DejaVuSans-55"/>
     <use xlink:href="#DejaVuSans-54" x="73.193359"/>
    </g>
   </g>
   <g id="text_35">
    <!-- CO -->
    <g transform="translate(359.379933 365.55764) scale(0.1 -0.1)">
     <use xlink:href="#DejaVuSans-43"/>
     <use xlink:href="#DejaVuSans-4f" x="69.824219"/>
    </g>
   </g>
   <g id="text_36">
    <!-- AR -->
    <g transform="translate(552.349102 434.106664) scale(0.1 -0.1)">
     <use xlink:href="#DejaVuSans-41"/>
     <use xlink:href="#DejaVuSans-52" x="68.408203"/>
    </g>
   </g>
   <g id="text_37">
    <!-- ID -->
    <g transform="translate(246.020454 300.581886) scale(0.1 -0.1)">
     <use xlink:href="#DejaVuSans-49"/>
     <use xlink:href="#DejaVuSans-44" x="29.492188"/>
    </g>
   </g>
   <g id="text_38">
    <!-- OR -->
    <g transform="translate(205.448031 365.55764) scale(0.1 -0.1)">
     <use xlink:href="#DejaVuSans-4f"/>
     <use xlink:href="#DejaVuSans-52" x="78.710938"/>
    </g>
   </g>
   <g id="text_39">
    <!-- IL -->
    <g transform="translate(554.982696 300.581886) scale(0.1 -0.1)">
     <use xlink:href="#DejaVuSans-49"/>
     <use xlink:href="#DejaVuSans-4c" x="29.492188"/>
    </g>
   </g>
   <g id="text_40">
    <!-- PA -->
    <g transform="translate(784.050862 300.581886) scale(0.1 -0.1)">
     <defs>
      <path id="DejaVuSans-50" d="M 1259 4147 
L 1259 2394 
L 2053 2394 
Q 2494 2394 2734 2622 
Q 2975 2850 2975 3272 
Q 2975 3691 2734 3919 
Q 2494 4147 2053 4147 
L 1259 4147 
z
M 628 4666 
L 2053 4666 
Q 2838 4666 3239 4311 
Q 3641 3956 3641 3272 
Q 3641 2581 3239 2228 
Q 2838 1875 2053 1875 
L 1259 1875 
L 1259 0 
L 628 0 
L 628 4666 
z
" transform="scale(0.015625)"/>
     </defs>
     <use xlink:href="#DejaVuSans-50"/>
     <use xlink:href="#DejaVuSans-41" x="53.927734"/>
    </g>
   </g>
   <g id="text_41">
    <!-- IN -->
    <g transform="translate(631.002553 300.581886) scale(0.1 -0.1)">
     <use xlink:href="#DejaVuSans-49"/>
     <use xlink:href="#DejaVuSans-4e" x="29.492188"/>
    </g>
   </g>
   <g id="text_42">
    <!-- NY -->
    <g transform="translate(821.860015 239.220093) scale(0.1 -0.1)">
     <use xlink:href="#DejaVuSans-4e"/>
     <use xlink:href="#DejaVuSans-59" x="74.804688"/>
    </g>
   </g>
   <g id="text_43">
    <!-- WA -->
    <g transform="translate(204.769124 239.220093) scale(0.1 -0.1)">
     <use xlink:href="#DejaVuSans-57"/>
     <use xlink:href="#DejaVuSans-41" x="93.376953"/>
    </g>
   </g>
   <g id="text_44">
    <!-- WI -->
    <g transform="translate(514.337617 239.220093) scale(0.1 -0.1)">
     <use xlink:href="#DejaVuSans-57"/>
     <use xlink:href="#DejaVuSans-49" x="98.876953"/>
    </g>
   </g>
   <g id="text_45">
    <!-- MA -->
    <g transform="translate(897.894716 239.220093) scale(0.1 -0.1)">
     <use xlink:href="#DejaVuSans-4d"/>
     <use xlink:href="#DejaVuSans-41" x="86.279297"/>
    </g>
   </g>
   <g id="text_46">
    <!-- MI -->
    <g transform="translate(668.916394 239.220093) scale(0.1 -0.1)">
     <use xlink:href="#DejaVuSans-4d"/>
     <use xlink:href="#DejaVuSans-49" x="86.279297"/>
    </g>
   </g>
   <g id="text_47">
    <!-- MN -->
    <g transform="translate(435.727134 239.220093) scale(0.1 -0.1)">
     <use xlink:href="#DejaVuSans-4d"/>
     <use xlink:href="#DejaVuSans-4e" x="86.279297"/>
    </g>
   </g>
   <g id="text_48">
    <!-- MT -->
    <g transform="translate(282.464763 239.220093) scale(0.1 -0.1)">
     <use xlink:href="#DejaVuSans-4d"/>
     <use xlink:href="#DejaVuSans-54" x="86.279297"/>
    </g>
   </g>
   <g id="text_49">
    <!-- ND -->
    <g transform="translate(359.216652 239.220093) scale(0.1 -0.1)">
     <use xlink:href="#DejaVuSans-4e"/>
     <use xlink:href="#DejaVuSans-44" x="74.804688"/>
    </g>
   </g>
   <g id="text_50">
    <!-- AK -->
    <g transform="translate(129.184423 127.254285) scale(0.1 -0.1)">
     <use xlink:href="#DejaVuSans-41"/>
     <use xlink:href="#DejaVuSans-4b" x="68.408203"/>
    </g>
   </g>
   <g id="text_51">
    <!-- CT -->
    <g transform="translate(937.571045 300.581886) scale(0.1 -0.1)">
     <use xlink:href="#DejaVuSans-43"/>
     <use xlink:href="#DejaVuSans-54" x="69.824219"/>
    </g>
   </g>
  </g>
 </g>
 <defs>
  <clipPath id="p06f6f108af">
   <rect x="10.8" y="62.762667" width="1058.4" height="594.474666"/>
  </clipPath>
 </defs>
</svg>
