<?xml version="1.0" encoding="UTF-8"?>
<svg id="Layer_1" data-name="Layer 1" xmlns="http://www.w3.org/2000/svg" xmlns:xlink="http://www.w3.org/1999/xlink" version="1.1" viewBox="0 0 1080 720">
  <defs>
    <style>
      .cls-1 {
        font-family: Raleway, Raleway;
        font-size: 23px;
      }

      .cls-1, .cls-2 {
        fill: #000;
      }

      .cls-1, .cls-3 {
        isolation: isolate;
      }

      .cls-4 {
        clip-path: url(#clippath);
      }

      .cls-5 {
        fill: none;
      }

      .cls-5, .cls-6, .cls-2, .cls-7 {
        stroke-width: 0px;
      }

      .cls-6 {
        fill: #b40426;
      }

      .cls-8 {
        clip-path: url(#clippath-1);
      }

      .cls-9 {
        clip-path: url(#clippath-4);
      }

      .cls-10 {
        clip-path: url(#clippath-3);
      }

      .cls-11 {
        clip-path: url(#clippath-2);
      }

      .cls-12 {
        clip-path: url(#clippath-7);
      }

      .cls-13 {
        clip-path: url(#clippath-8);
      }

      .cls-14 {
        clip-path: url(#clippath-6);
      }

      .cls-15 {
        clip-path: url(#clippath-5);
      }

      .cls-16 {
        clip-path: url(#clippath-9);
      }

      .cls-17 {
        clip-path: url(#clippath-20);
      }

      .cls-18 {
        clip-path: url(#clippath-21);
      }

      .cls-19 {
        clip-path: url(#clippath-24);
      }

      .cls-20 {
        clip-path: url(#clippath-23);
      }

      .cls-21 {
        clip-path: url(#clippath-22);
      }

      .cls-22 {
        clip-path: url(#clippath-25);
      }

      .cls-23 {
        clip-path: url(#clippath-44);
      }

      .cls-24 {
        clip-path: url(#clippath-45);
      }

      .cls-25 {
        clip-path: url(#clippath-40);
      }

      .cls-26 {
        clip-path: url(#clippath-42);
      }

      .cls-27 {
        clip-path: url(#clippath-41);
      }

      .cls-28 {
        clip-path: url(#clippath-47);
      }

      .cls-29 {
        clip-path: url(#clippath-43);
      }

      .cls-30 {
        clip-path: url(#clippath-46);
      }

      .cls-31 {
        clip-path: url(#clippath-48);
      }

      .cls-32 {
        clip-path: url(#clippath-49);
      }

      .cls-33 {
        clip-path: url(#clippath-27);
      }

      .cls-34 {
        clip-path: url(#clippath-28);
      }

      .cls-35 {
        clip-path: url(#clippath-26);
      }

      .cls-36 {
        clip-path: url(#clippath-29);
      }

      .cls-37 {
        clip-path: url(#clippath-34);
      }

      .cls-38 {
        clip-path: url(#clippath-35);
      }

      .cls-39 {
        clip-path: url(#clippath-36);
      }

      .cls-40 {
        clip-path: url(#clippath-37);
      }

      .cls-41 {
        clip-path: url(#clippath-39);
      }

      .cls-42 {
        clip-path: url(#clippath-33);
      }

      .cls-43 {
        clip-path: url(#clippath-32);
      }

      .cls-44 {
        clip-path: url(#clippath-30);
      }

      .cls-45 {
        clip-path: url(#clippath-38);
      }

      .cls-46 {
        clip-path: url(#clippath-31);
      }

      .cls-47 {
        clip-path: url(#clippath-50);
      }

      .cls-48 {
        clip-path: url(#clippath-14);
      }

      .cls-49 {
        clip-path: url(#clippath-13);
      }

      .cls-50 {
        clip-path: url(#clippath-12);
      }

      .cls-51 {
        clip-path: url(#clippath-10);
      }

      .cls-52 {
        clip-path: url(#clippath-15);
      }

      .cls-53 {
        clip-path: url(#clippath-17);
      }

      .cls-54 {
        clip-path: url(#clippath-16);
      }

      .cls-55 {
        clip-path: url(#clippath-19);
      }

      .cls-56 {
        clip-path: url(#clippath-11);
      }

      .cls-57 {
        clip-path: url(#clippath-18);
      }

      .cls-7 {
        fill: #3b4cc0;
      }
    </style>
    <clipPath id="clippath">
      <rect class="cls-5" x="17.4" y="79.2" width="1058.4" height="594.5"/>
    </clipPath>
    <clipPath id="clippath-1">
      <rect class="cls-5" x="17.4" y="79.2" width="1058.4" height="594.5"/>
    </clipPath>
    <clipPath id="clippath-2">
      <rect class="cls-5" x="17.4" y="79.2" width="1058.4" height="594.5"/>
    </clipPath>
    <clipPath id="clippath-3">
      <rect class="cls-5" x="17.4" y="79.2" width="1058.4" height="594.5"/>
    </clipPath>
    <clipPath id="clippath-4">
      <rect class="cls-5" x="17.4" y="79.2" width="1058.4" height="594.5"/>
    </clipPath>
    <clipPath id="clippath-5">
      <rect class="cls-5" x="17.4" y="79.2" width="1058.4" height="594.5"/>
    </clipPath>
    <clipPath id="clippath-6">
      <rect class="cls-5" x="17.4" y="79.2" width="1058.4" height="594.5"/>
    </clipPath>
    <clipPath id="clippath-7">
      <rect class="cls-5" x="17.4" y="79.2" width="1058.4" height="594.5"/>
    </clipPath>
    <clipPath id="clippath-8">
      <rect class="cls-5" x="17.4" y="79.2" width="1058.4" height="594.5"/>
    </clipPath>
    <clipPath id="clippath-9">
      <rect class="cls-5" x="17.4" y="79.2" width="1058.4" height="594.5"/>
    </clipPath>
    <clipPath id="clippath-10">
      <rect class="cls-5" x="17.4" y="79.2" width="1058.4" height="594.5"/>
    </clipPath>
    <clipPath id="clippath-11">
      <rect class="cls-5" x="17.4" y="79.2" width="1058.4" height="594.5"/>
    </clipPath>
    <clipPath id="clippath-12">
      <rect class="cls-5" x="17.4" y="79.2" width="1058.4" height="594.5"/>
    </clipPath>
    <clipPath id="clippath-13">
      <rect class="cls-5" x="17.4" y="79.2" width="1058.4" height="594.5"/>
    </clipPath>
    <clipPath id="clippath-14">
      <rect class="cls-5" x="17.4" y="79.2" width="1058.4" height="594.5"/>
    </clipPath>
    <clipPath id="clippath-15">
      <rect class="cls-5" x="17.4" y="79.2" width="1058.4" height="594.5"/>
    </clipPath>
    <clipPath id="clippath-16">
      <rect class="cls-5" x="17.4" y="79.2" width="1058.4" height="594.5"/>
    </clipPath>
    <clipPath id="clippath-17">
      <rect class="cls-5" x="17.4" y="79.2" width="1058.4" height="594.5"/>
    </clipPath>
    <clipPath id="clippath-18">
      <rect class="cls-5" x="17.4" y="79.2" width="1058.4" height="594.5"/>
    </clipPath>
    <clipPath id="clippath-19">
      <rect class="cls-5" x="17.4" y="79.2" width="1058.4" height="594.5"/>
    </clipPath>
    <clipPath id="clippath-20">
      <rect class="cls-5" x="17.4" y="79.2" width="1058.4" height="594.5"/>
    </clipPath>
    <clipPath id="clippath-21">
      <rect class="cls-5" x="17.4" y="79.2" width="1058.4" height="594.5"/>
    </clipPath>
    <clipPath id="clippath-22">
      <rect class="cls-5" x="17.4" y="79.2" width="1058.4" height="594.5"/>
    </clipPath>
    <clipPath id="clippath-23">
      <rect class="cls-5" x="17.4" y="79.2" width="1058.4" height="594.5"/>
    </clipPath>
    <clipPath id="clippath-24">
      <rect class="cls-5" x="17.4" y="79.2" width="1058.4" height="594.5"/>
    </clipPath>
    <clipPath id="clippath-25">
      <rect class="cls-5" x="17.4" y="79.2" width="1058.4" height="594.5"/>
    </clipPath>
    <clipPath id="clippath-26">
      <rect class="cls-5" x="17.4" y="79.2" width="1058.4" height="594.5"/>
    </clipPath>
    <clipPath id="clippath-27">
      <rect class="cls-5" x="17.4" y="79.2" width="1058.4" height="594.5"/>
    </clipPath>
    <clipPath id="clippath-28">
      <rect class="cls-5" x="17.4" y="79.2" width="1058.4" height="594.5"/>
    </clipPath>
    <clipPath id="clippath-29">
      <rect class="cls-5" x="17.4" y="79.2" width="1058.4" height="594.5"/>
    </clipPath>
    <clipPath id="clippath-30">
      <rect class="cls-5" x="17.4" y="79.2" width="1058.4" height="594.5"/>
    </clipPath>
    <clipPath id="clippath-31">
      <rect class="cls-5" x="17.4" y="79.2" width="1058.4" height="594.5"/>
    </clipPath>
    <clipPath id="clippath-32">
      <rect class="cls-5" x="17.4" y="79.2" width="1058.4" height="594.5"/>
    </clipPath>
    <clipPath id="clippath-33">
      <rect class="cls-5" x="17.4" y="79.2" width="1058.4" height="594.5"/>
    </clipPath>
    <clipPath id="clippath-34">
      <rect class="cls-5" x="17.4" y="79.2" width="1058.4" height="594.5"/>
    </clipPath>
    <clipPath id="clippath-35">
      <rect class="cls-5" x="17.4" y="79.2" width="1058.4" height="594.5"/>
    </clipPath>
    <clipPath id="clippath-36">
      <rect class="cls-5" x="17.4" y="79.2" width="1058.4" height="594.5"/>
    </clipPath>
    <clipPath id="clippath-37">
      <rect class="cls-5" x="17.4" y="79.2" width="1058.4" height="594.5"/>
    </clipPath>
    <clipPath id="clippath-38">
      <rect class="cls-5" x="17.4" y="79.2" width="1058.4" height="594.5"/>
    </clipPath>
    <clipPath id="clippath-39">
      <rect class="cls-5" x="17.4" y="79.2" width="1058.4" height="594.5"/>
    </clipPath>
    <clipPath id="clippath-40">
      <rect class="cls-5" x="17.4" y="79.2" width="1058.4" height="594.5"/>
    </clipPath>
    <clipPath id="clippath-41">
      <rect class="cls-5" x="17.4" y="79.2" width="1058.4" height="594.5"/>
    </clipPath>
    <clipPath id="clippath-42">
      <rect class="cls-5" x="17.4" y="79.2" width="1058.4" height="594.5"/>
    </clipPath>
    <clipPath id="clippath-43">
      <rect class="cls-5" x="17.4" y="79.2" width="1058.4" height="594.5"/>
    </clipPath>
    <clipPath id="clippath-44">
      <rect class="cls-5" x="17.4" y="79.2" width="1058.4" height="594.5"/>
    </clipPath>
    <clipPath id="clippath-45">
      <rect class="cls-5" x="17.4" y="79.2" width="1058.4" height="594.5"/>
    </clipPath>
    <clipPath id="clippath-46">
      <rect class="cls-5" x="17.4" y="79.2" width="1058.4" height="594.5"/>
    </clipPath>
    <clipPath id="clippath-47">
      <rect class="cls-5" x="17.4" y="79.2" width="1058.4" height="594.5"/>
    </clipPath>
    <clipPath id="clippath-48">
      <rect class="cls-5" x="17.4" y="79.2" width="1058.4" height="594.5"/>
    </clipPath>
    <clipPath id="clippath-49">
      <rect class="cls-5" x="17.4" y="79.2" width="1058.4" height="594.5"/>
    </clipPath>
    <clipPath id="clippath-50">
      <rect class="cls-5" x="17.4" y="79.2" width="1058.4" height="594.5"/>
    </clipPath>
  </defs>
  <g id="figure_1" data-name="figure 1">
    <g id="axes_1" data-name="axes 1">
      <g id="PatchCollection_1" data-name="PatchCollection 1">
        <g class="cls-4">
          <path class="cls-6" d="M989.2,106.2l38.5,16.9v35l-38.5,18.1-38.5-18.1v-35l38.5-16.9"/>
        </g>
        <g class="cls-8">
          <path class="cls-7" d="M989.2,213.4l38.5,19.2v39.7l-38.5,20.5-38.5-20.5v-39.7l38.5-19.2"/>
        </g>
        <g class="cls-11">
          <path class="cls-7" d="M873.7,158l38.5,18.1v37.3l-38.5,19.2-38.5-19.2v-37.3l38.5-18.1"/>
        </g>
        <g class="cls-10">
          <path class="cls-6" d="M450.4,470.9l38.5,24v49.2l-38.5,25.1-38.5-25.1v-49.2l38.5-24"/>
        </g>
        <g class="cls-9">
          <path class="cls-6" d="M719.8,401.1l38.5,22.9v46.9l-38.5,24-38.5-24v-46.9l38.5-22.9"/>
        </g>
        <g class="cls-15">
          <path class="cls-6" d="M758.3,334.9l38.5,21.7v44.5l-38.5,22.9-38.5-22.9v-44.5l38.5-21.7"/>
        </g>
        <g class="cls-14">
          <path class="cls-6" d="M681.3,334.9l38.5,21.7v44.5l-38.5,22.9-38.5-22.9v-44.5l38.5-21.7"/>
        </g>
        <g class="cls-12">
          <path class="cls-7" d="M257.9,401.1l38.5,22.9v46.9l-38.5,24-38.5-24v-46.9l38.5-22.9"/>
        </g>
        <g class="cls-13">
          <path class="cls-6" d="M488.9,401.1l38.5,22.9v46.9l-38.5,24-38.5-24v-46.9l38.5-22.9"/>
        </g>
        <g class="cls-16">
          <path class="cls-6" d="M604.3,334.9l38.5,21.7v44.5l-38.5,22.9-38.5-22.9v-44.5l38.5-21.7"/>
        </g>
        <g class="cls-51">
          <path class="cls-7" d="M835.2,334.9l38.5,21.7v44.5l-38.5,22.9-38.5-22.9v-44.5l38.5-21.7"/>
        </g>
        <g class="cls-56">
          <path class="cls-6" d="M527.3,334.9l38.5,21.7v44.5l-38.5,22.9-38.5-22.9v-44.5l38.5-21.7"/>
        </g>
        <g class="cls-50">
          <path class="cls-6" d="M450.4,334.9l38.5,21.7v44.5l-38.5,22.9-38.5-22.9v-44.5l38.5-21.7"/>
        </g>
        <g class="cls-49">
          <path class="cls-7" d="M411.9,401.1l38.5,22.9v46.9l-38.5,24-38.5-24v-46.9l38.5-22.9"/>
        </g>
        <g class="cls-48">
          <path class="cls-6" d="M796.8,401.1l38.5,22.9v46.9l-38.5,24-38.5-24v-46.9l38.5-22.9"/>
        </g>
        <g class="cls-52">
          <path class="cls-6" d="M642.8,401.1l38.5,22.9v46.9l-38.5,24-38.5-24v-46.9l38.5-22.9"/>
        </g>
        <g class="cls-54">
          <path class="cls-6" d="M488.9,272.4l38.5,20.5v42.1l-38.5,21.7-38.5-21.7v-42.1l38.5-20.5"/>
        </g>
        <g class="cls-53">
          <path class="cls-6" d="M296.4,334.9l38.5,21.7v44.5l-38.5,22.9-38.5-22.9v-44.5l38.5-21.7"/>
        </g>
        <g class="cls-57">
          <path class="cls-7" d="M873.7,272.4l38.5,20.5v42.1l-38.5,21.7-38.5-21.7v-42.1l38.5-20.5"/>
        </g>
        <g class="cls-55">
          <path class="cls-6" d="M411.9,272.4l38.5,20.5v42.1l-38.5,21.7-38.5-21.7v-42.1l38.5-20.5"/>
        </g>
        <g class="cls-17">
          <path class="cls-6" d="M719.8,272.4l38.5,20.5v42.1l-38.5,21.7-38.5-21.7v-42.1l38.5-20.5"/>
        </g>
        <g class="cls-18">
          <path class="cls-6" d="M334.9,272.4l38.5,20.5v42.1l-38.5,21.7-38.5-21.7v-42.1l38.5-20.5"/>
        </g>
        <g class="cls-21">
          <path class="cls-7" d="M873.7,401.1l38.5,22.9v46.9l-38.5,24-38.5-24v-46.9l38.5-22.9"/>
        </g>
        <g class="cls-20">
          <path class="cls-7" d="M912.2,334.9l38.5,21.7v44.5l-38.5,22.9-38.5-22.9v-44.5l38.5-21.7"/>
        </g>
        <g class="cls-19">
          <path class="cls-6" d="M719.8,544l38.5,25.1v51.3l-38.5,26.2-38.5-26.2v-51.3l38.5-25.1"/>
        </g>
        <g class="cls-22">
          <path class="cls-6" d="M950.7,158l38.5,18.1v37.3l-38.5,19.2-38.5-19.2v-37.3l38.5-18.1"/>
        </g>
        <g class="cls-35">
          <path class="cls-7" d="M104,544l38.5,25.1v51.3l-38.5,26.2-38.5-26.2v-51.3l38.5-25.1"/>
        </g>
        <g class="cls-33">
          <path class="cls-6" d="M488.9,544l38.5,25.1v51.3l-38.5,26.2-38.5-26.2v-51.3l38.5-25.1"/>
        </g>
        <g class="cls-34">
          <path class="cls-6" d="M681.3,470.9l38.5,24v49.2l-38.5,25.1-38.5-25.1v-49.2l38.5-24"/>
        </g>
        <g class="cls-36">
          <path class="cls-6" d="M373.4,470.9l38.5,24v49.2l-38.5,25.1-38.5-25.1v-49.2l38.5-24"/>
        </g>
        <g class="cls-44">
          <path class="cls-7" d="M758.3,470.9l38.5,24v49.2l-38.5,25.1-38.5-25.1v-49.2l38.5-24"/>
        </g>
        <g class="cls-46">
          <path class="cls-6" d="M527.3,470.9l38.5,24v49.2l-38.5,25.1-38.5-25.1v-49.2l38.5-24"/>
        </g>
        <g class="cls-43">
          <path class="cls-7" d="M604.3,470.9l38.5,24v49.2l-38.5,25.1-38.5-25.1v-49.2l38.5-24"/>
        </g>
        <g class="cls-42">
          <path class="cls-6" d="M334.9,401.1l38.5,22.9v46.9l-38.5,24-38.5-24v-46.9l38.5-22.9"/>
        </g>
        <g class="cls-37">
          <path class="cls-6" d="M373.4,334.9l38.5,21.7v44.5l-38.5,22.9-38.5-22.9v-44.5l38.5-21.7"/>
        </g>
        <g class="cls-38">
          <path class="cls-6" d="M565.8,401.1l38.5,22.9v46.9l-38.5,24-38.5-24v-46.9l38.5-22.9"/>
        </g>
        <g class="cls-39">
          <path class="cls-6" d="M257.9,272.4l38.5,20.5v42.1l-38.5,21.7-38.5-21.7v-42.1l38.5-20.5"/>
        </g>
        <g class="cls-40">
          <path class="cls-6" d="M219.4,334.9l38.5,21.7v44.5l-38.5,22.9-38.5-22.9v-44.5l38.5-21.7"/>
        </g>
        <g class="cls-45">
          <path class="cls-7" d="M565.8,272.4l38.5,20.5v42.1l-38.5,21.7-38.5-21.7v-42.1l38.5-20.5"/>
        </g>
        <g class="cls-41">
          <path class="cls-6" d="M796.8,272.4l38.5,20.5v42.1l-38.5,21.7-38.5-21.7v-42.1l38.5-20.5"/>
        </g>
        <g class="cls-25">
          <path class="cls-6" d="M642.8,272.4l38.5,20.5v42.1l-38.5,21.7-38.5-21.7v-42.1l38.5-20.5"/>
        </g>
        <g class="cls-27">
          <path class="cls-7" d="M835.2,213.4l38.5,19.2v39.7l-38.5,20.5-38.5-20.5v-39.7l38.5-19.2"/>
        </g>
        <g class="cls-26">
          <path class="cls-7" d="M219.4,213.4l38.5,19.2v39.7l-38.5,20.5-38.5-20.5v-39.7l38.5-19.2"/>
        </g>
        <g class="cls-29">
          <path class="cls-6" d="M527.3,213.4l38.5,19.2v39.7l-38.5,20.5-38.5-20.5v-39.7l38.5-19.2"/>
        </g>
        <g class="cls-23">
          <path class="cls-7" d="M912.2,213.4l38.5,19.2v39.7l-38.5,20.5-38.5-20.5v-39.7l38.5-19.2"/>
        </g>
        <g class="cls-24">
          <path class="cls-6" d="M681.3,213.4l38.5,19.2v39.7l-38.5,20.5-38.5-20.5v-39.7l38.5-19.2"/>
        </g>
        <g class="cls-30">
          <path class="cls-6" d="M450.4,213.4l38.5,19.2v39.7l-38.5,20.5-38.5-20.5v-39.7l38.5-19.2"/>
        </g>
        <g class="cls-28">
          <path class="cls-6" d="M296.4,213.4l38.5,19.2v39.7l-38.5,20.5-38.5-20.5v-39.7l38.5-19.2"/>
        </g>
        <g class="cls-31">
          <path class="cls-6" d="M373.4,213.4l38.5,19.2v39.7l-38.5,20.5-38.5-20.5v-39.7l38.5-19.2"/>
        </g>
        <g class="cls-32">
          <path class="cls-6" d="M142.5,106.2l38.5,16.9v35l-38.5,18.1-38.5-18.1v-35l38.5-16.9"/>
        </g>
        <g class="cls-47">
          <path class="cls-7" d="M950.7,272.4l38.5,20.5v42.1l-38.5,21.7-38.5-21.7v-42.1l38.5-20.5"/>
        </g>
      </g>
      <g id="text_1" data-name="text 1">
        <g>
          <path id="DejaVuSans-4d" class="cls-2" d="M982.7,136.4h1.5l1.9,5,1.9-5h1.5v7.3h-1v-6.4l-1.9,5h-1l-1.9-5v6.4h-1v-7.3Z"/>
          <path id="DejaVuSans-45" class="cls-2" d="M991.3,136.4h4.6v.8h-3.6v2.2h3.5v.8h-3.5v2.6h3.7v.8h-4.7v-7.3h0Z"/>
        </g>
      </g>
      <g id="text_2" data-name="text 2">
        <g>
          <path id="DejaVuSans-52" class="cls-2" d="M988.7,252.2c.2,0,.4.2.6.5s.4.6.6,1l1,2h-1.1l-.9-1.9c-.2-.5-.5-.8-.7-1s-.5-.2-.9-.2h-1.1v3.1h-1v-7.3h2.2c.8,0,1.5.2,1.9.5s.6.9.6,1.6,0,.8-.3,1.1-.5.5-.9.6h0ZM986.2,249.1v2.6h1.2c.5,0,.8-.1,1.1-.3s.4-.5.4-1,0-.7-.4-1-.6-.3-1.1-.3h-1.2Z"/>
          <path id="DejaVuSans-49" class="cls-2" d="M992.2,248.3h1v7.3h-1v-7.3Z"/>
        </g>
      </g>
      <g id="text_3" data-name="text 3">
        <g>
          <path id="DejaVuSans-56" class="cls-2" d="M870.1,197.9l-2.8-7.3h1l2.3,6.1,2.3-6.1h1l-2.8,7.3h-1.1,0Z"/>
          <path id="DejaVuSans-54" class="cls-2" d="M874.1,190.6h6.2v.8h-2.6v6.5h-1v-6.5h-2.6v-.8h0Z"/>
        </g>
      </g>
      <g id="text_4" data-name="text 4">
        <g>
          <path id="DejaVuSans-4f" class="cls-2" d="M447.1,515.9c-.7,0-1.3.3-1.7.8-.4.5-.6,1.3-.6,2.2s.2,1.6.6,2.2c.4.5,1,.8,1.7.8s1.3-.3,1.7-.8c.4-.5.6-1.3.6-2.2s-.2-1.6-.6-2.2c-.4-.5-1-.8-1.7-.8ZM447.1,515.1c1,0,1.8.3,2.5,1,.6.7.9,1.6.9,2.8s-.3,2.1-.9,2.8-1.4,1-2.5,1-1.8-.3-2.5-1c-.6-.7-.9-1.6-.9-2.8s.3-2.1.9-2.8c.6-.7,1.4-1,2.5-1h0Z"/>
          <path id="DejaVuSans-4b" class="cls-2" d="M452,515.2h1v3.1l3.3-3.1h1.3l-3.6,3.4,3.9,3.9h-1.3l-3.5-3.5v3.5h-1v-7.3h0Z"/>
        </g>
      </g>
      <g id="text_5" data-name="text 5">
        <g>
          <path id="DejaVuSans-4e" class="cls-2" d="M713.5,443.2h1.3l3.2,6.1v-6.1h1v7.3h-1.3l-3.2-6.1v6.1h-1v-7.3Z"/>
          <path id="DejaVuSans-43" class="cls-2" d="M726.5,443.8v1c-.3-.3-.7-.5-1.1-.7-.4-.2-.8-.2-1.2-.2-.8,0-1.5.3-1.9.8s-.7,1.2-.7,2.2.2,1.7.7,2.2,1.1.8,1.9.8.8,0,1.2-.2.7-.4,1.1-.7v1c-.3.2-.7.4-1.1.5-.4.1-.8.2-1.2.2-1.1,0-2-.3-2.6-1s-1-1.6-1-2.8.3-2.1,1-2.8c.6-.7,1.5-1,2.6-1s.8,0,1.2.2c.4.1.7.3,1.1.5Z"/>
        </g>
      </g>
      <g id="text_6" data-name="text 6">
        <g>
          <path id="DejaVuSans-56-2" class="cls-2" d="M754.6,382l-2.8-7.3h1l2.3,6.1,2.3-6.1h1l-2.8,7.3h-1.1,0Z"/>
          <path id="DejaVuSans-41" class="cls-2" d="M761.4,375.6l-1.3,3.6h2.7l-1.3-3.6h-.1ZM760.8,374.7h1.1l2.8,7.3h-1l-.7-1.9h-3.3l-.7,1.9h-1l2.8-7.3h0Z"/>
        </g>
      </g>
      <g id="text_7" data-name="text 7">
        <g>
          <path id="DejaVuSans-57" class="cls-2" d="M673.3,374.7h1l1.5,6.2,1.5-6.2h1.1l1.5,6.2,1.5-6.2h1l-1.8,7.3h-1.2l-1.5-6.3-1.6,6.3h-1.2l-1.8-7.3Z"/>
          <path id="DejaVuSans-56-3" class="cls-2" d="M685.7,382l-2.8-7.3h1l2.3,6.1,2.3-6.1h1l-2.8,7.3h-1.1,0Z"/>
        </g>
      </g>
      <g id="text_8" data-name="text 8">
        <g>
          <path id="DejaVuSans-43-2" class="cls-2" d="M257.5,443.8v1c-.3-.3-.7-.5-1.1-.7-.4-.2-.8-.2-1.2-.2-.8,0-1.5.3-1.9.8s-.7,1.2-.7,2.2.2,1.7.7,2.2,1.1.8,1.9.8.8,0,1.2-.2.7-.4,1.1-.7v1c-.3.2-.7.4-1.1.5-.4.1-.8.2-1.2.2-1.1,0-2-.3-2.6-1s-1-1.6-1-2.8.3-2.1,1-2.8c.6-.7,1.5-1,2.6-1s.8,0,1.2.2c.4.1.7.3,1.1.5Z"/>
          <path id="DejaVuSans-41-2" class="cls-2" d="M261.4,444.2l-1.3,3.6h2.7l-1.3-3.6h-.1ZM260.9,443.2h1.1l2.8,7.3h-1l-.7-1.9h-3.3l-.7,1.9h-1l2.8-7.3h0Z"/>
        </g>
      </g>
      <g id="text_9" data-name="text 9">
        <g>
          <path id="DejaVuSans-4b-2" class="cls-2" d="M483.4,443.2h1v3.1l3.3-3.1h1.3l-3.6,3.4,3.9,3.9h-1.3l-3.5-3.5v3.5h-1v-7.3h0Z"/>
          <path id="DejaVuSans-53" class="cls-2" d="M494.3,443.4v1c-.4-.2-.7-.3-1.1-.4-.3,0-.7-.1-1-.1-.5,0-1,.1-1.2.3-.3.2-.4.5-.4.9s0,.6.3.7c.2.2.6.3,1.1.4h.6c.7.3,1.3.5,1.6.9s.5.8.5,1.4-.2,1.2-.7,1.6-1.2.5-2.1.5-.7,0-1.1-.1c-.4,0-.8-.2-1.2-.3v-1c.4.2.8.4,1.2.5.4.1.8.2,1.1.2.6,0,1-.1,1.3-.3.3-.2.5-.5.5-.9s-.1-.6-.3-.8-.6-.4-1.1-.5h-.6c-.7-.3-1.3-.5-1.6-.8-.3-.3-.5-.7-.5-1.3s.2-1.2.7-1.5c.5-.4,1.1-.6,1.9-.6h1c.4,0,.7.2,1.1.3h0Z"/>
        </g>
      </g>
      <g id="text_10" data-name="text 10">
        <g>
          <path id="DejaVuSans-4b-3" class="cls-2" d="M599.1,374.7h1v3.1l3.3-3.1h1.3l-3.6,3.4,3.9,3.9h-1.3l-3.5-3.5v3.5h-1v-7.3h-.1Z"/>
          <path id="DejaVuSans-59" class="cls-2" d="M604.3,374.7h1.1l2,3,2-3h1.1l-2.6,3.8v3.5h-1v-3.5l-2.6-3.8Z"/>
        </g>
      </g>
      <g id="text_11" data-name="text 11">
        <g>
          <path id="DejaVuSans-4d-2" class="cls-2" d="M828.1,374.7h1.5l1.9,5,1.9-5h1.5v7.3h-1v-6.4l-1.9,5h-1l-1.9-5v6.4h-1v-7.3Z"/>
          <path id="DejaVuSans-44" class="cls-2" d="M837.7,375.5v5.7h1.2c1,0,1.7-.2,2.2-.7s.7-1.2.7-2.2-.2-1.7-.7-2.1-1.2-.7-2.2-.7h-1.2ZM836.7,374.7h2c1.4,0,2.4.3,3.1.9.7.6,1,1.5,1,2.8s-.3,2.2-1,2.8c-.7.6-1.7.9-3.1.9h-2v-7.3h0Z"/>
        </g>
      </g>
      <g id="text_12" data-name="text 12">
        <g>
          <path id="DejaVuSans-4d-3" class="cls-2" d="M520.1,374.7h1.5l1.9,5,1.9-5h1.5v7.3h-1v-6.4l-1.9,5h-1l-1.9-5v6.4h-1v-7.3Z"/>
          <path id="DejaVuSans-4f-2" class="cls-2" d="M531.7,375.3c-.7,0-1.3.3-1.7.8s-.6,1.3-.6,2.2.2,1.6.6,2.2c.4.5,1,.8,1.7.8s1.3-.3,1.7-.8.6-1.3.6-2.2-.2-1.6-.6-2.2c-.4-.5-1-.8-1.7-.8ZM531.7,374.5c1,0,1.8.3,2.5,1,.6.7.9,1.6.9,2.8s-.3,2.1-.9,2.8c-.6.7-1.4,1-2.5,1s-1.8-.3-2.5-1c-.6-.7-.9-1.6-.9-2.8s.3-2.1.9-2.8c.6-.7,1.4-1,2.5-1Z"/>
        </g>
      </g>
      <g id="text_13" data-name="text 13">
        <g>
          <path id="DejaVuSans-4e-2" class="cls-2" d="M444.4,374.7h1.3l3.2,6.1v-6.1h1v7.3h-1.3l-3.2-6.1v6.1h-1v-7.3Z"/>
          <path id="DejaVuSans-45-2" class="cls-2" d="M451.9,374.7h4.6v.8h-3.6v2.2h3.5v.8h-3.5v2.6h3.7v.8h-4.7v-7.3h0Z"/>
        </g>
      </g>
      <g id="text_14" data-name="text 14">
        <g>
          <path id="DejaVuSans-4e-3" class="cls-2" d="M404.8,443.2h1.3l3.2,6.1v-6.1h1v7.3h-1.3l-3.2-6.1v6.1h-1v-7.3Z"/>
          <path id="DejaVuSans-4d-4" class="cls-2" d="M412.3,443.2h1.5l1.9,5,1.9-5h1.5v7.3h-1v-6.4l-1.9,5h-1l-1.9-5v6.4h-1v-7.3Z"/>
        </g>
      </g>
      <g id="text_15" data-name="text 15">
        <g>
          <path id="DejaVuSans-53-2" class="cls-2" d="M795.4,443.4v1c-.4-.2-.7-.3-1.1-.4-.3,0-.7-.1-1-.1-.5,0-1,.1-1.2.3-.3.2-.4.5-.4.9s0,.6.3.7c.2.2.6.3,1.1.4h.6c.7.3,1.3.5,1.6.9s.5.8.5,1.4-.2,1.2-.7,1.6-1.2.5-2.1.5-.7,0-1.1-.1c-.4,0-.8-.2-1.2-.3v-1c.4.2.8.4,1.2.5s.8.2,1.1.2c.6,0,1-.1,1.3-.3.3-.2.5-.5.5-.9s0-.6-.3-.8-.6-.4-1.1-.5h-.6c-.7-.3-1.3-.5-1.6-.8s-.5-.7-.5-1.3.2-1.2.7-1.5c.5-.4,1.1-.6,1.9-.6h1c.4,0,.7.2,1.1.3h0Z"/>
          <path id="DejaVuSans-43-3" class="cls-2" d="M802.9,443.8v1c-.3-.3-.7-.5-1.1-.7-.4-.2-.8-.2-1.2-.2-.8,0-1.5.3-1.9.8s-.7,1.2-.7,2.2.2,1.7.7,2.2,1.1.8,1.9.8.8,0,1.2-.2.7-.4,1.1-.7v1c-.3.2-.7.4-1.1.5-.4.1-.8.2-1.2.2-1.1,0-2-.3-2.6-1s-1-1.6-1-2.8.3-2.1,1-2.8c.6-.7,1.5-1,2.6-1s.8,0,1.2.2c.4.1.7.3,1.1.5Z"/>
        </g>
      </g>
      <g id="text_16" data-name="text 16">
        <g>
          <path id="DejaVuSans-54-2" class="cls-2" d="M636,443.2h6.2v.8h-2.6v6.5h-1v-6.5h-2.6v-.8h0Z"/>
          <path id="DejaVuSans-4e-4" class="cls-2" d="M643.1,443.2h1.3l3.2,6.1v-6.1h1v7.3h-1.3l-3.2-6.1v6.1h-1v-7.3Z"/>
        </g>
      </g>
      <g id="text_17" data-name="text 17">
        <g>
          <path id="DejaVuSans-49-2" class="cls-2" d="M484.9,309.7h1v7.3h-1v-7.3Z"/>
          <path id="DejaVuSans-41-3" class="cls-2" d="M490.3,310.7l-1.3,3.6h2.7l-1.3-3.6h-.1ZM489.8,309.7h1.1l2.8,7.3h-1l-.7-1.9h-3.3l-.7,1.9h-1l2.8-7.3h0Z"/>
        </g>
      </g>
      <g id="text_18" data-name="text 18">
        <g>
          <path id="DejaVuSans-4e-5" class="cls-2" d="M290.2,374.7h1.3l3.2,6.1v-6.1h1v7.3h-1.3l-3.2-6.1v6.1h-1v-7.3Z"/>
          <path id="DejaVuSans-56-4" class="cls-2" d="M299.6,382l-2.8-7.3h1l2.3,6.1,2.3-6.1h1l-2.8,7.3h-1.1.1Z"/>
        </g>
      </g>
      <g id="text_19" data-name="text 19">
        <g>
          <path id="DejaVuSans-4e-6" class="cls-2" d="M869.5,309.7h1.3l3.2,6.1v-6.1h1v7.3h-1.3l-3.2-6.1v6.1h-1v-7.3Z"/>
          <path id="DejaVuSans-4a" class="cls-2" d="M877,309.7h1v6.8c0,.9-.2,1.5-.5,1.9s-.9.6-1.6.6h-.4v-.8h.3c.4,0,.7-.1.9-.4.2-.2.3-.7.3-1.3v-6.8h0Z"/>
        </g>
      </g>
      <g id="text_20" data-name="text 20">
        <g>
          <path id="DejaVuSans-53-3" class="cls-2" d="M410.2,309.9v1c-.4-.2-.7-.3-1.1-.4-.3,0-.7-.1-1-.1-.5,0-1,.1-1.2.3-.3.2-.4.5-.4.9s0,.6.3.7c.2.2.6.3,1.1.4h.6c.7.3,1.3.5,1.6.9s.5.8.5,1.4-.2,1.2-.7,1.6-1.2.5-2.1.5-.7,0-1.1-.1c-.4,0-.8-.2-1.2-.3v-1c.4.2.8.4,1.2.5.4.1.8.2,1.1.2.6,0,1-.1,1.3-.3.3-.2.5-.5.5-.9s-.1-.6-.3-.8-.6-.4-1.1-.5h-.6c-.7-.3-1.3-.5-1.6-.8-.3-.3-.5-.7-.5-1.3s.2-1.2.7-1.5c.5-.4,1.1-.6,1.9-.6h1c.4,0,.7.2,1.1.3h0Z"/>
          <path id="DejaVuSans-44-2" class="cls-2" d="M413.2,310.5v5.7h1.2c1,0,1.7-.2,2.2-.7s.7-1.2.7-2.2-.2-1.7-.7-2.1-1.2-.7-2.2-.7h-1.2ZM412.2,309.7h2c1.4,0,2.4.3,3.1.9s1,1.5,1,2.8-.3,2.2-1,2.8c-.7.6-1.7.9-3.1.9h-2v-7.3h0Z"/>
        </g>
      </g>
      <g id="text_21" data-name="text 21">
        <g>
          <path id="DejaVuSans-4f-3" class="cls-2" d="M716,310.4c-.7,0-1.3.3-1.7.8s-.6,1.3-.6,2.2.2,1.6.6,2.2c.4.5,1,.8,1.7.8s1.3-.3,1.7-.8.6-1.3.6-2.2-.2-1.6-.6-2.2c-.4-.5-1-.8-1.7-.8ZM716,309.6c1,0,1.8.3,2.5,1,.6.7.9,1.6.9,2.8s-.3,2.1-.9,2.8c-.6.7-1.4,1-2.5,1s-1.8-.3-2.5-1c-.6-.7-.9-1.6-.9-2.8s.3-2.1.9-2.8c.6-.7,1.4-1,2.5-1Z"/>
          <path id="DejaVuSans-48" class="cls-2" d="M720.9,309.7h1v3h3.6v-3h1v7.3h-1v-3.5h-3.6v3.5h-1v-7.3Z"/>
        </g>
      </g>
      <g id="text_22" data-name="text 22">
        <g>
          <path id="DejaVuSans-57-2" class="cls-2" d="M327.2,309.7h1l1.5,6.2,1.5-6.2h1.1l1.5,6.2,1.5-6.2h1l-1.8,7.3h-1.2l-1.5-6.3-1.6,6.3h-1.2l-1.8-7.3Z"/>
          <path id="DejaVuSans-59-2" class="cls-2" d="M336.8,309.7h1.1l2,3,2-3h1.1l-2.6,3.8v3.5h-1v-3.5l-2.6-3.8Z"/>
        </g>
      </g>
      <g id="text_23" data-name="text 23">
        <g>
          <path id="DejaVuSans-44-3" class="cls-2" d="M868.4,444v5.7h1.2c1,0,1.7-.2,2.2-.7s.7-1.2.7-2.2-.2-1.7-.7-2.1-1.2-.7-2.2-.7h-1.2ZM867.4,443.2h2c1.4,0,2.4.3,3.1.9.7.6,1,1.5,1,2.8s-.3,2.2-1,2.8c-.7.6-1.7.9-3.1.9h-2v-7.3h0Z"/>
          <path id="DejaVuSans-43-4" class="cls-2" d="M880.5,443.8v1c-.3-.3-.7-.5-1.1-.7-.4-.2-.8-.2-1.2-.2-.8,0-1.5.3-1.9.8s-.7,1.2-.7,2.2.2,1.7.7,2.2,1.1.8,1.9.8.8,0,1.2-.2.7-.4,1.1-.7v1c-.3.2-.7.4-1.1.5-.4.1-.8.2-1.2.2-1.1,0-2-.3-2.6-1s-1-1.6-1-2.8.3-2.1,1-2.8c.6-.7,1.5-1,2.6-1s.8,0,1.2.2c.4.1.7.3,1.1.5Z"/>
        </g>
      </g>
      <g id="text_24" data-name="text 24">
        <g>
          <path id="DejaVuSans-44-4" class="cls-2" d="M907.2,375.5v5.7h1.2c1,0,1.7-.2,2.2-.7s.7-1.2.7-2.2-.2-1.7-.7-2.1-1.2-.7-2.2-.7h-1.2ZM906.2,374.7h2c1.4,0,2.4.3,3.1.9.7.6,1,1.5,1,2.8s-.3,2.2-1,2.8c-.7.6-1.7.9-3.1.9h-2v-7.3h0Z"/>
          <path id="DejaVuSans-45-3" class="cls-2" d="M913.9,374.7h4.6v.8h-3.6v2.2h3.5v.8h-3.5v2.6h3.7v.8h-4.7v-7.3h0Z"/>
        </g>
      </g>
      <g id="text_25" data-name="text 25">
        <g>
          <path id="DejaVuSans-46" class="cls-2" d="M715.1,590.6h4.2v.8h-3.2v2.1h2.9v.8h-2.9v3.5h-1v-7.3h0Z"/>
          <path id="DejaVuSans-4c" class="cls-2" d="M720.9,590.6h1v6.5h3.6v.8h-4.5v-7.3h0Z"/>
        </g>
      </g>
      <g id="text_26" data-name="text 26">
        <g>
          <path id="DejaVuSans-4e-7" class="cls-2" d="M944.2,190.6h1.3l3.2,6.1v-6.1h1v7.3h-1.3l-3.2-6.1v6.1h-1v-7.3Z"/>
          <path id="DejaVuSans-48-2" class="cls-2" d="M951.7,190.6h1v3h3.6v-3h1v7.3h-1v-3.5h-3.6v3.5h-1v-7.3Z"/>
        </g>
      </g>
      <g id="text_27" data-name="text 27">
        <g>
          <path id="DejaVuSans-48-3" class="cls-2" d="M99.7,590.6h1v3h3.6v-3h1v7.3h-1v-3.5h-3.6v3.5h-1v-7.3Z"/>
          <path id="DejaVuSans-49-3" class="cls-2" d="M107.2,590.6h1v7.3h-1v-7.3Z"/>
        </g>
      </g>
      <g id="text_28" data-name="text 28">
        <g>
          <path id="DejaVuSans-54-3" class="cls-2" d="M482.3,590.6h6.2v.8h-2.6v6.5h-1v-6.5h-2.6v-.8Z"/>
          <path id="DejaVuSans-58" class="cls-2" d="M489.1,590.6h1.1l1.8,2.7,1.8-2.7h1.1l-2.3,3.5,2.5,3.8h-1.1l-2.1-3.1-2.1,3.1h-1.1l2.6-3.9-2.3-3.4h.1Z"/>
        </g>
      </g>
      <g id="text_29" data-name="text 29">
        <g>
          <path id="DejaVuSans-41-4" class="cls-2" d="M678.5,516.2l-1.3,3.6h2.7l-1.3-3.6h-.1ZM677.9,515.2h1.1l2.8,7.3h-1l-.7-1.9h-3.3l-.7,1.9h-1l2.8-7.3h0Z"/>
          <path id="DejaVuSans-4c-2" class="cls-2" d="M682.9,515.2h1v6.5h3.6v.8h-4.5v-7.3h0Z"/>
        </g>
      </g>
      <g id="text_30" data-name="text 30">
        <g>
          <path id="DejaVuSans-41-5" class="cls-2" d="M370,516.2l-1.3,3.6h2.7l-1.3-3.6h-.1ZM369.4,515.2h1.1l2.8,7.3h-1l-.7-1.9h-3.3l-.7,1.9h-1l2.8-7.3h0Z"/>
          <path id="DejaVuSans-5a" class="cls-2" d="M374,515.2h5.7v.8l-4.6,5.7h4.7v.8h-6v-.8l4.6-5.7h-4.5v-.8h0Z"/>
        </g>
      </g>
      <g id="text_31" data-name="text 31">
        <g>
          <path id="DejaVuSans-47" class="cls-2" d="M756.9,521.5v-2h-1.6v-.8h2.6v3.1c-.4.3-.8.5-1.3.6s-.9.2-1.5.2c-1.1,0-2-.3-2.7-1-.6-.7-1-1.6-1-2.8s.3-2.1,1-2.8c.6-.7,1.5-1,2.7-1s.9,0,1.4.2c.4.1.8.3,1.2.5v1.1c-.4-.3-.8-.5-1.2-.7s-.8-.2-1.3-.2c-.9,0-1.6.2-2,.7s-.7,1.2-.7,2.2.2,1.7.7,2.2c.4.5,1.1.7,2,.7h.9c.3,0,.5-.2.7-.3h0Z"/>
          <path id="DejaVuSans-41-6" class="cls-2" d="M762.1,516.2l-1.3,3.6h2.7l-1.3-3.6h-.1ZM761.6,515.2h1.1l2.8,7.3h-1l-.7-1.9h-3.3l-.7,1.9h-1l2.8-7.3h0Z"/>
        </g>
      </g>
      <g id="text_32" data-name="text 32">
        <g>
          <path id="DejaVuSans-4c-3" class="cls-2" d="M522,515.2h1v6.5h3.6v.8h-4.5v-7.3h0Z"/>
          <path id="DejaVuSans-41-7" class="cls-2" d="M530.2,516.2l-1.3,3.6h2.7l-1.3-3.6h-.1ZM529.7,515.2h1.1l2.8,7.3h-1l-.7-1.9h-3.3l-.7,1.9h-1l2.8-7.3h0Z"/>
        </g>
      </g>
      <g id="text_33" data-name="text 33">
        <g>
          <path id="DejaVuSans-4d-5" class="cls-2" d="M597.8,515.2h1.5l1.9,5,1.9-5h1.5v7.3h-1v-6.4l-1.9,5h-1l-1.9-5v6.4h-1v-7.3h0Z"/>
          <path id="DejaVuSans-53-4" class="cls-2" d="M610.8,515.5v1c-.4-.2-.7-.3-1.1-.4-.3,0-.7-.1-1-.1-.5,0-1,.1-1.2.3-.3.2-.4.5-.4.9s0,.6.3.7c.2.2.6.3,1.1.4h.6c.7.3,1.3.5,1.6.9s.5.8.5,1.4-.2,1.2-.7,1.6c-.5.4-1.2.5-2.1.5s-.7,0-1.1,0c-.4,0-.8-.2-1.2-.3v-1c.4.2.8.4,1.2.5s.8.2,1.1.2c.6,0,1,0,1.3-.3s.5-.5.5-.9,0-.6-.3-.8-.6-.4-1.1-.5h-.6c-.7-.3-1.3-.5-1.6-.8s-.5-.7-.5-1.3.2-1.2.7-1.5c.5-.4,1.1-.6,1.9-.6h1c.4,0,.7.2,1.1.3h0Z"/>
        </g>
      </g>
      <g id="text_34" data-name="text 34">
        <g>
          <path id="DejaVuSans-55" class="cls-2" d="M329.1,443.2h1v4.4c0,.8.1,1.3.4,1.7.3.3.7.5,1.4.5s1.1-.2,1.4-.5.4-.9.4-1.7v-4.4h1v4.6c0,1-.2,1.7-.7,2.2s-1.2.7-2.1.7-1.6-.2-2.1-.7-.7-1.2-.7-2.2v-4.6h0Z"/>
          <path id="DejaVuSans-54-4" class="cls-2" d="M335.5,443.2h6.2v.8h-2.6v6.5h-1v-6.5h-2.6v-.8Z"/>
        </g>
      </g>
      <g id="text_35" data-name="text 35">
        <g>
          <path id="DejaVuSans-43-5" class="cls-2" d="M372.4,375.2v1c-.3-.3-.7-.5-1.1-.7s-.8-.2-1.2-.2c-.8,0-1.5.3-1.9.8s-.7,1.2-.7,2.2.2,1.7.7,2.2,1.1.8,1.9.8.8,0,1.2-.2.7-.4,1.1-.7v1c-.3.2-.7.4-1.1.5s-.8.2-1.2.2c-1.1,0-2-.3-2.6-1s-1-1.6-1-2.8.3-2.1,1-2.8c.6-.7,1.5-1,2.6-1s.8,0,1.2.2c.4.1.7.3,1.1.5Z"/>
          <path id="DejaVuSans-4f-4" class="cls-2" d="M376.9,375.3c-.7,0-1.3.3-1.7.8-.4.5-.6,1.3-.6,2.2s.2,1.6.6,2.2c.4.5,1,.8,1.7.8s1.3-.3,1.7-.8c.4-.5.6-1.3.6-2.2s-.2-1.6-.6-2.2c-.4-.5-1-.8-1.7-.8ZM376.9,374.5c1,0,1.8.3,2.5,1,.6.7.9,1.6.9,2.8s-.3,2.1-.9,2.8c-.6.7-1.4,1-2.5,1s-1.8-.3-2.5-1c-.6-.7-.9-1.6-.9-2.8s.3-2.1.9-2.8c.6-.7,1.4-1,2.5-1Z"/>
        </g>
      </g>
      <g id="text_36" data-name="text 36">
        <g>
          <path id="DejaVuSans-41-8" class="cls-2" d="M562.4,444.2l-1.3,3.6h2.7l-1.3-3.6h-.1ZM561.8,443.2h1.1l2.8,7.3h-1l-.7-1.9h-3.3l-.7,1.9h-1l2.8-7.3h0Z"/>
          <path id="DejaVuSans-52-2" class="cls-2" d="M570.2,447.1c.2,0,.4.2.6.5s.4.6.6,1l1,2h-1.1l-.9-1.9c-.2-.5-.5-.8-.7-1s-.5-.2-.9-.2h-1.1v3.1h-1v-7.3h2.2c.8,0,1.5.2,1.9.5s.6.9.6,1.6,0,.8-.3,1.1c-.2.3-.5.5-.9.6h0ZM567.7,444v2.6h1.2c.5,0,.8-.1,1.1-.3s.4-.5.4-1,0-.7-.4-1-.6-.3-1.1-.3h-1.2Z"/>
        </g>
      </g>
      <g id="text_37" data-name="text 37">
        <g>
          <path id="DejaVuSans-49-4" class="cls-2" d="M253.6,309.7h1v7.3h-1v-7.3Z"/>
          <path id="DejaVuSans-44-5" class="cls-2" d="M257.5,310.5v5.7h1.2c1,0,1.7-.2,2.2-.7s.7-1.2.7-2.2-.2-1.7-.7-2.1-1.2-.7-2.2-.7h-1.2ZM256.5,309.7h2c1.4,0,2.4.3,3.1.9s1,1.5,1,2.8-.3,2.2-1,2.8c-.7.6-1.7.9-3.1.9h-2v-7.3h0Z"/>
        </g>
      </g>
      <g id="text_38" data-name="text 38">
        <g>
          <path id="DejaVuSans-4f-5" class="cls-2" d="M216,375.3c-.7,0-1.3.3-1.7.8s-.6,1.3-.6,2.2.2,1.6.6,2.2c.4.5,1,.8,1.7.8s1.3-.3,1.7-.8.6-1.3.6-2.2-.2-1.6-.6-2.2c-.4-.5-1-.8-1.7-.8ZM216,374.5c1,0,1.8.3,2.5,1,.6.7.9,1.6.9,2.8s-.3,2.1-.9,2.8c-.6.7-1.4,1-2.5,1s-1.8-.3-2.5-1c-.6-.7-.9-1.6-.9-2.8s.3-2.1.9-2.8c.6-.7,1.4-1,2.5-1Z"/>
          <path id="DejaVuSans-52-3" class="cls-2" d="M224.3,378.5c.2,0,.4.2.6.5s.4.6.6,1l1,2h-1.1l-.9-1.9c-.2-.5-.5-.8-.7-1s-.5-.2-.9-.2h-1.1v3.1h-1v-7.3h2.2c.8,0,1.5.2,1.9.5s.6.9.6,1.6-.1.8-.3,1.1c-.2.3-.5.5-.9.6h0ZM221.9,375.5v2.6h1.2c.5,0,.8-.1,1.1-.3s.4-.5.4-1-.1-.7-.4-1-.6-.3-1.1-.3h-1.2Z"/>
        </g>
      </g>
      <g id="text_39" data-name="text 39">
        <g>
          <path id="DejaVuSans-49-5" class="cls-2" d="M562.6,309.7h1v7.3h-1v-7.3Z"/>
          <path id="DejaVuSans-4c-4" class="cls-2" d="M565.5,309.7h1v6.5h3.6v.8h-4.5v-7.3h0Z"/>
        </g>
      </g>
      <g id="text_40" data-name="text 40">
        <g>
          <path id="DejaVuSans-50" class="cls-2" d="M792.6,310.5v2.7h1.2c.5,0,.8-.1,1.1-.4.3-.2.4-.6.4-1s0-.8-.4-1c-.3-.2-.6-.4-1.1-.4h-1.2ZM791.6,309.7h2.2c.8,0,1.4.2,1.9.6.4.4.6.9.6,1.6s-.2,1.3-.6,1.6c-.4.4-1,.6-1.9.6h-1.2v2.9h-1v-7.3h0Z"/>
          <path id="DejaVuSans-41-9" class="cls-2" d="M799.4,310.7l-1.3,3.6h2.7l-1.3-3.6h-.1ZM798.9,309.7h1.1l2.8,7.3h-1l-.7-1.9h-3.3l-.7,1.9h-1l2.8-7.3h0Z"/>
        </g>
      </g>
      <g id="text_41" data-name="text 41">
        <g>
          <path id="DejaVuSans-49-6" class="cls-2" d="M638.6,309.7h1v7.3h-1v-7.3Z"/>
          <path id="DejaVuSans-4e-8" class="cls-2" d="M641.5,309.7h1.3l3.2,6.1v-6.1h1v7.3h-1.3l-3.2-6.1v6.1h-1v-7.3Z"/>
        </g>
      </g>
      <g id="text_42" data-name="text 42">
        <g>
          <path id="DejaVuSans-4e-9" class="cls-2" d="M829.4,248.3h1.3l3.2,6.1v-6.1h1v7.3h-1.3l-3.2-6.1v6.1h-1v-7.3Z"/>
          <path id="DejaVuSans-59-3" class="cls-2" d="M835.9,248.3h1.1l2,3,2-3h1.1l-2.6,3.8v3.5h-1v-3.5l-2.6-3.8Z"/>
        </g>
      </g>
      <g id="text_43" data-name="text 43">
        <g>
          <path id="DejaVuSans-57-3" class="cls-2" d="M211.7,248.3h1l1.5,6.2,1.5-6.2h1.1l1.5,6.2,1.5-6.2h1l-1.8,7.3h-1.2l-1.5-6.3-1.6,6.3h-1.2l-1.8-7.3Z"/>
          <path id="DejaVuSans-41-10" class="cls-2" d="M224.1,249.3l-1.3,3.6h2.7l-1.3-3.6h0ZM223.6,248.3h1.1l2.8,7.3h-1l-.7-1.9h-3.3l-.7,1.9h-1l2.8-7.3h0Z"/>
        </g>
      </g>
      <g id="text_44" data-name="text 44">
        <g>
          <path id="DejaVuSans-57-4" class="cls-2" d="M521.3,248.3h1l1.5,6.2,1.5-6.2h1.1l1.5,6.2,1.5-6.2h1l-1.8,7.3h-1.2l-1.5-6.3-1.6,6.3h-1.2l-1.8-7.3Z"/>
          <path id="DejaVuSans-49-7" class="cls-2" d="M531.8,248.3h1v7.3h-1v-7.3Z"/>
        </g>
      </g>
      <g id="text_45" data-name="text 45">
        <g>
          <path id="DejaVuSans-4d-6" class="cls-2" d="M905.5,248.3h1.5l1.9,5,1.9-5h1.5v7.3h-1v-6.4l-1.9,5h-1l-1.9-5v6.4h-1v-7.3Z"/>
          <path id="DejaVuSans-41-11" class="cls-2" d="M916.5,249.3l-1.3,3.6h2.7l-1.3-3.6h-.1ZM916,248.3h1.1l2.8,7.3h-1l-.7-1.9h-3.3l-.7,1.9h-1l2.8-7.3h0Z"/>
        </g>
      </g>
      <g id="text_46" data-name="text 46">
        <g>
          <path id="DejaVuSans-4d-7" class="cls-2" d="M676.5,248.3h1.5l1.9,5,1.9-5h1.5v7.3h-1v-6.4l-1.9,5h-1l-1.9-5v6.4h-1v-7.3Z"/>
          <path id="DejaVuSans-49-8" class="cls-2" d="M685.1,248.3h1v7.3h-1v-7.3Z"/>
        </g>
      </g>
      <g id="text_47" data-name="text 47">
        <g>
          <path id="DejaVuSans-4d-8" class="cls-2" d="M443.3,248.3h1.5l1.9,5,1.9-5h1.5v7.3h-1v-6.4l-1.9,5h-1l-1.9-5v6.4h-1v-7.3Z"/>
          <path id="DejaVuSans-4e-10" class="cls-2" d="M451.9,248.3h1.3l3.2,6.1v-6.1h1v7.3h-1.3l-3.2-6.1v6.1h-1v-7.3Z"/>
        </g>
      </g>
      <g id="text_48" data-name="text 48">
        <g>
          <path id="DejaVuSans-4d-9" class="cls-2" d="M290,248.3h1.5l1.9,5,1.9-5h1.5v7.3h-1v-6.4l-1.9,5h-1l-1.9-5v6.4h-1v-7.3Z"/>
          <path id="DejaVuSans-54-5" class="cls-2" d="M297.6,248.3h6.2v.8h-2.6v6.5h-1v-6.5h-2.6v-.8Z"/>
        </g>
      </g>
      <g id="text_49" data-name="text 49">
        <g>
          <path id="DejaVuSans-4e-11" class="cls-2" d="M366.8,248.3h1.3l3.2,6.1v-6.1h1v7.3h-1.3l-3.2-6.1v6.1h-1v-7.3Z"/>
          <path id="DejaVuSans-44-6" class="cls-2" d="M375.3,249.1v5.7h1.2c1,0,1.7-.2,2.2-.7s.7-1.2.7-2.2-.2-1.7-.7-2.1-1.2-.7-2.2-.7h-1.2ZM374.3,248.3h2c1.4,0,2.4.3,3.1.9.7.6,1,1.5,1,2.8s-.3,2.2-1,2.8-1.7.9-3.1.9h-2v-7.3h0Z"/>
        </g>
      </g>
      <g id="text_50" data-name="text 50">
        <g>
          <path id="DejaVuSans-41-12" class="cls-2" d="M139.2,137.3l-1.3,3.6h2.7l-1.3-3.6h0ZM138.6,136.4h1.1l2.8,7.3h-1l-.7-1.9h-3.3l-.7,1.9h-1l2.8-7.3h0Z"/>
          <path id="DejaVuSans-4b-4" class="cls-2" d="M143.6,136.4h1v3.1l3.3-3.1h1.3l-3.6,3.4,3.9,3.9h-1.3l-3.5-3.5v3.5h-1v-7.3h0Z"/>
        </g>
      </g>
      <g id="text_51" data-name="text 51">
        <g>
          <path id="DejaVuSans-43-6" class="cls-2" d="M950.6,310.2v1c-.3-.3-.7-.5-1.1-.7-.4-.2-.8-.2-1.2-.2-.8,0-1.5.3-1.9.8s-.7,1.2-.7,2.2.2,1.7.7,2.2,1.1.8,1.9.8.8,0,1.2-.2.7-.4,1.1-.7v1c-.3.2-.7.4-1.1.5-.4.1-.8.2-1.2.2-1.1,0-2-.3-2.6-1s-1-1.6-1-2.8.3-2.1,1-2.8c.6-.7,1.5-1,2.6-1s.8,0,1.2.2c.4.1.7.3,1.1.5Z"/>
          <path id="DejaVuSans-54-6" class="cls-2" d="M951.1,309.7h6.2v.8h-2.6v6.5h-1v-6.5h-2.6v-.8h0Z"/>
        </g>
      </g>
    </g>
    <g class="cls-3">
      <text class="cls-1" transform="translate(376.8 127.6)"><tspan x="0" y="0">2024</tspan></text>
      <text class="cls-1" transform="translate(424 127.6)"><tspan x="0" y="0"> </tspan></text>
      <text class="cls-1" transform="translate(430 127.6)"><tspan x="0" y="0">ML</tspan></text>
      <text class="cls-1" transform="translate(459.3 127.6)"><tspan x="0" y="0"> </tspan></text>
      <text class="cls-1" transform="translate(465.3 127.6)"><tspan x="0" y="0">Predicted</tspan></text>
      <text class="cls-1" transform="translate(557.3 127.6)"><tspan x="0" y="0"> </tspan></text>
      <text class="cls-1" transform="translate(563.3 127.6)"><tspan x="0" y="0">Election</tspan></text>
      <text class="cls-1" transform="translate(640.3 127.6)"><tspan x="0" y="0"> </tspan></text>
      <text class="cls-1" transform="translate(646.3 127.6)"><tspan x="0" y="0">Results</tspan></text>
    </g>
  </g>
</svg>