<svg xmlns="http://www.w3.org/2000/svg" xmlns:xlink="http://www.w3.org/1999/xlink" xmlns:lucid="lucid" width="1808" height="1089"><g transform="translate(1210 942)" lucid:page-tab-id="0_0"><path d="M-1140-834.8v-35.67a6 6 0 0 1 6-6h308a6 6 0 0 1 6 6v35.67z" stroke="#3a414a" fill="#6db1ff"/><path d="M-820-834.8V74a6 6 0 0 1-6 6h-308a6 6 0 0 1-6-6v-908.8z" stroke="#3a414a" fill="none"/><use xlink:href="#a" transform="matrix(1,0,0,1,-1140,-876.4705882352939) translate(74.38271604938274 25.444444444444443)"/><use xlink:href="#b" transform="matrix(1,0,0,1,-1140,-876.4705882352939) translate(117.53086419753087 25.444444444444443)"/><use xlink:href="#c" transform="matrix(1,0,0,1,-1140,-876.4705882352939) translate(197.59259259259258 25.444444444444443)"/><path d="M-820-834.8v-35.67a6 6 0 0 1 6-6H214a6 6 0 0 1 6 6v35.67z" stroke="#3a414a" fill="#00c2a8"/><path d="M220-834.8V-446a6 6 0 0 1-6 6H-814a6 6 0 0 1-6-6v-388.8z" stroke="#3a414a" fill="none"/><use xlink:href="#d" transform="matrix(1,0,0,1,-820,-876.4705882352939) translate(404.2283950617284 25.444444444444443)"/><use xlink:href="#e" transform="matrix(1,0,0,1,-820,-876.4705882352939) translate(508.98148148148147 25.444444444444443)"/><use xlink:href="#f" transform="matrix(1,0,0,1,-820,-876.4705882352939) translate(579.1666666666666 25.444444444444443)"/><path d="M-821.76-398.33V-434a6 6 0 0 1 6-6H214a6 6 0 0 1 6 6v35.67z" stroke="#3a414a" fill="#9391ff"/><path d="M220-398.33V74a6 6 0 0 1-6 6H-815.76a6 6 0 0 1-6-6v-472.33z" stroke="#3a414a" fill="none"/><use xlink:href="#g" transform="matrix(1,0,0,1,-821.7587652922143,-439.99999999999994) translate(391.679012345679 25.444444444444443)"/><use xlink:href="#h" transform="matrix(1,0,0,1,-821.7587652922143,-439.99999999999994) translate(486.55555555555554 25.444444444444443)"/><use xlink:href="#i" transform="matrix(1,0,0,1,-821.7587652922143,-439.99999999999994) translate(586.3086419753085 25.444444444444443)"/><path d="M220-834.8v-35.67a6 6 0 0 1 6-6h308a6 6 0 0 1 6 6v35.67z" stroke="#3a414a" fill="#6db1ff"/><path d="M540-834.8V74a6 6 0 0 1-6 6H226a6 6 0 0 1-6-6v-908.8z" stroke="#3a414a" fill="none"/><use xlink:href="#j" transform="matrix(1,0,0,1,220,-876.4705882352939) translate(70.06172839506175 25.444444444444443)"/><use xlink:href="#b" transform="matrix(1,0,0,1,220,-876.4705882352939) translate(121.85185185185186 25.444444444444443)"/><use xlink:href="#c" transform="matrix(1,0,0,1,220,-876.4705882352939) translate(201.91358024691357 25.444444444444443)"/><path d="M-731.75-748.4a8 8 0 0 1 8-8h144a8 8 0 0 1 8 8v104a8 8 0 0 1-8 8h-144a8 8 0 0 1-8-8z" stroke="#3a414a" fill="#b8f5ed"/><use xlink:href="#k" transform="matrix(1,0,0,1,-726.1925795026372,-750.8534864871314) translate(23.9753086419753 45.32952777777778)"/><use xlink:href="#l" transform="matrix(1,0,0,1,-726.1925795026372,-750.8534864871314) translate(14.12962962962963 71.99619444444446)"/><path d="M-165.45-748.4a8 8 0 0 1 8-8h128a8 8 0 0 1 8 8v94c-24.05-17.05-39.03-17.05-48.1-17.05-14.4 0-33.55 17.04-47.95 17.04-8.93 0-24.05 0-47.95-17.05z" stroke="#00c2a8" stroke-width="2" fill="#d7faf5"/><path d="M-157.45-739.4a8 8 0 0 1 8-8h128a8 8 0 0 1 8 8v94c-24.05-17.05-39.03-17.05-48.1-17.05-14.4 0-33.55 17.04-47.95 17.04-8.93 0-24.05 0-47.95-17.05z" stroke="#00c2a8" stroke-width="2" fill="#d7faf5"/><path d="M-149.45-730.4a8 8 0 0 1 8-8h128a8 8 0 0 1 8 8v94c-24.05-17.05-39.03-17.05-48.1-17.05-14.4 0-33.55 17.04-47.95 17.04-8.93 0-24.05 0-47.95-17.05z" stroke="#00c2a8" stroke-width="2" fill="#d7faf5"/><use xlink:href="#m" transform="matrix(1,0,0,1,-144.4518467698249,-733.4144864871314) translate(-3.8333333333333286 17.77777777777778)"/><use xlink:href="#n" transform="matrix(1,0,0,1,-144.4518467698249,-733.4144864871314) translate(9.71604938271605 44.44444444444444)"/><use xlink:href="#o" transform="matrix(1,0,0,1,-144.4518467698249,-733.4144864871314) translate(29.99382716049383 71.11111111111111)"/><path d="M-731.75-190.88a8 8 0 0 1 8-8h144a8 8 0 0 1 8 8v104a8 8 0 0 1-8 8h-144a8 8 0 0 1-8-8z" stroke="#3a414a" fill="#dedeff"/><use xlink:href="#p" transform="matrix(1,0,0,1,-726.1925795026372,-193.3155408055388) translate(23.6358024691358 58.95452777777778)"/><use xlink:href="#q" transform="matrix(1,0,0,1,-726.1925795026372,-193.3155408055388) translate(61.351851851851855 58.95452777777778)"/><path d="M-485.45-191.63a8 8 0 0 1 8-8h183.54a8 8 0 0 1 8 8v105.5a8 8 0 0 1-8 8h-183.55a8 8 0 0 1-8-8z" stroke="#3a414a" fill="#dedeff"/><use xlink:href="#r" transform="matrix(1,0,0,1,-479.8908467698249,-194.06387413887214) translate(53.82098765432099 24.954527777777777)"/><use xlink:href="#s" transform="matrix(1,0,0,1,-479.8908467698249,-194.06387413887214) translate(16.845679012345695 51.62119444444445)"/><use xlink:href="#t" transform="matrix(1,0,0,1,-479.8908467698249,-194.06387413887214) translate(31.629629629629616 78.28786111111111)"/><use xlink:href="#u" transform="matrix(1,0,0,1,-479.8908467698249,-194.06387413887214) translate(48.29629629629629 104.9545277777778)"/><path d="M-280-84a6 6 0 0 1 6-6h88a6 6 0 0 1 6 6V74a6 6 0 0 1-6 6h-88a6 6 0 0 1-6-6z" stroke="#000" stroke-opacity="0" stroke-width="2" fill="#fff" fill-opacity="0"/><use xlink:href="#v" transform="matrix(1,0,0,1,-275,-84.99999999999994) translate(26.166666666666668 24.000000000000014)"/><use xlink:href="#w" transform="matrix(1,0,0,1,-275,-84.99999999999994) translate(13.361111111111118 48.000000000000014)"/><use xlink:href="#x" transform="matrix(1,0,0,1,-275,-84.99999999999994) translate(31.138888888888893 72)"/><use xlink:href="#y" transform="matrix(1,0,0,1,-275,-84.99999999999994) translate(45 96)"/><use xlink:href="#z" transform="matrix(1,0,0,1,-275,-84.99999999999994) translate(-1.5833333333333286 120)"/><use xlink:href="#A" transform="matrix(1,0,0,1,-275,-84.99999999999994) translate(3.94444444444445 144)"/><path d="M0-192.88a6 6 0 0 1 6-6h132a6 6 0 0 1 6 6v102c-24.05-18.03-39.02-18.03-48.1-18.03-14.4 0-33.55 18.02-47.95 18.02-8.93 0-24.05 0-47.95-18.03z" stroke="#282c33" stroke-width="2" fill="#f2f2ff"/><path d="M8-183.35a6 6 0 0 1 6-6h132a6 6 0 0 1 6 6v102c-24.05-18.03-39.02-18.03-48.1-18.03-14.4 0-33.55 18.03-47.95 18.03-8.93 0-24.05 0-47.95-18.03z" stroke="#282c33" stroke-width="2" fill="#f2f2ff"/><path d="M16-173.82a6 6 0 0 1 6-6h132a6 6 0 0 1 6 6v102c-24.05-18.03-39.02-18.03-48.1-18.03-14.4 0-33.55 18.03-47.95 18.03-8.93 0-24.05 0-47.95-18.03z" stroke="#282c33" stroke-width="2" fill="#f2f2ff"/><use xlink:href="#m" transform="matrix(1,0,0,1,21,-174.81771727612707) translate(-3.8333333333333286 17.77777777777778)"/><use xlink:href="#n" transform="matrix(1,0,0,1,21,-174.81771727612707) translate(9.71604938271605 44.44444444444444)"/><use xlink:href="#o" transform="matrix(1,0,0,1,21,-174.81771727612707) translate(29.99382716049383 71.11111111111111)"/><path d="M-20-368.33a6 6 0 0 1 6-6h228a6 6 0 0 1 6 6V-237a6 6 0 0 1-6 6H-14a6 6 0 0 1-6-6z" stroke="#000" stroke-opacity="0" stroke-width="2" fill="#fff" fill-opacity="0"/><use xlink:href="#B" transform="matrix(1,0,0,1,-15,-369.3333333333333) translate(26.194444444444457 36.9375)"/><use xlink:href="#C" transform="matrix(1,0,0,1,-15,-369.3333333333333) translate(71.69444444444446 36.9375)"/><use xlink:href="#D" transform="matrix(1,0,0,1,-15,-369.3333333333333) translate(88.36111111111111 36.9375)"/><use xlink:href="#E" transform="matrix(1,0,0,1,-15,-369.3333333333333) translate(110.58333333333333 36.9375)"/><use xlink:href="#F" transform="matrix(1,0,0,1,-15,-369.3333333333333) translate(180.52777777777777 36.9375)"/><use xlink:href="#G" transform="matrix(1,0,0,1,-15,-369.3333333333333) translate(5.666666666666686 60.9375)"/><use xlink:href="#H" transform="matrix(1,0,0,1,-15,-369.3333333333333) translate(62.277777777777786 60.9375)"/><use xlink:href="#I" transform="matrix(1,0,0,1,-15,-369.3333333333333) translate(73.3888888888889 60.9375)"/><use xlink:href="#C" transform="matrix(1,0,0,1,-15,-369.3333333333333) translate(121.05555555555556 60.9375)"/><use xlink:href="#D" transform="matrix(1,0,0,1,-15,-369.3333333333333) translate(137.72222222222223 60.9375)"/><use xlink:href="#J" transform="matrix(1,0,0,1,-15,-369.3333333333333) translate(159.94444444444446 60.9375)"/><use xlink:href="#K" transform="matrix(1,0,0,1,-15,-369.3333333333333) translate(9.833333333333371 84.9375)"/><use xlink:href="#L" transform="matrix(1,0,0,1,-15,-369.3333333333333) translate(27.05555555555559 84.9375)"/><use xlink:href="#M" transform="matrix(1,0,0,1,-15,-369.3333333333333) translate(126.94444444444446 84.9375)"/><use xlink:href="#J" transform="matrix(1,0,0,1,-15,-369.3333333333333) translate(155.77777777777777 84.9375)"/><use xlink:href="#N" transform="matrix(1,0,0,1,-15,-369.3333333333333) translate(37.86111111111113 108.9375)"/><use xlink:href="#O" transform="matrix(1,0,0,1,-15,-369.3333333333333) translate(60.08333333333334 108.9375)"/><use xlink:href="#M" transform="matrix(1,0,0,1,-15,-369.3333333333333) translate(105.6388888888889 108.9375)"/><use xlink:href="#P" transform="matrix(1,0,0,1,-15,-369.3333333333333) translate(134.47222222222223 108.9375)"/><path d="M-180-52a8 8 0 0 1 8-8h144a8 8 0 0 1 8 8V52a8 8 0 0 1-8 8h-144a8 8 0 0 1-8-8z" stroke="#3a414a" fill="#dedeff"/><use xlink:href="#p" transform="matrix(1,0,0,1,-174.439,-54.43899999999994) translate(23.6358024691358 58.95452777777778)"/><use xlink:href="#q" transform="matrix(1,0,0,1,-174.439,-54.43899999999994) translate(61.351851851851855 58.95452777777778)"/><path d="M-175.68-332a8 8 0 0 1 8-8h128a8 8 0 0 1 8 8v94c-24.05-17.03-39.02-17.03-48.1-17.03-14.4 0-33.55 17.03-47.95 17.03-8.93 0-24.05 0-47.95-17.03z" stroke="#00c2a8" stroke-width="2" fill="#d7faf5"/><path d="M-167.68-323a8 8 0 0 1 8-8h128a8 8 0 0 1 8 8v94c-24.05-17.03-39.02-17.03-48.1-17.03-14.4 0-33.55 17.03-47.95 17.03-8.93 0-24.05 0-47.95-17.03z" stroke="#00c2a8" stroke-width="2" fill="#d7faf5"/><path d="M-159.68-314a8 8 0 0 1 8-8h128a8 8 0 0 1 8 8v94c-24.05-17.03-39.02-17.03-48.1-17.03-14.4 0-33.55 17.03-47.95 17.03-8.93 0-24.05 0-47.95-17.03z" stroke="#00c2a8" stroke-width="2" fill="#d7faf5"/><use xlink:href="#m" transform="matrix(1,0,0,1,-154.68002374940215,-316.99999999999994) translate(-3.8333333333333286 17.77777777777778)"/><use xlink:href="#n" transform="matrix(1,0,0,1,-154.68002374940215,-316.99999999999994) translate(9.71604938271605 44.44444444444444)"/><use xlink:href="#o" transform="matrix(1,0,0,1,-154.68002374940215,-316.99999999999994) translate(29.99382716049383 71.11111111111111)"/><path d="M375.57-379.8a10.67 10.67 0 0 1 12.8 0l67.2 50.4a6 6 0 0 1 0 9.6l-67.2 50.4a10.67 10.67 0 0 1-12.8 0l-67.2-50.4a6 6 0 0 1 0-9.6z" stroke="#1071e5" stroke-width="2" fill="#fff"/><use xlink:href="#Q" transform="matrix(1,0,0,1,306.97352111002783,-379.5855135128686) translate(28.801296296296286 59.02777777777778)"/><path d="M290.95-794a6 6 0 0 1 6-6H448.8a6 6 0 0 1 6 6v109.95c-27.37-19.36-44.4-19.36-54.73-19.36-16.38 0-38.18 19.35-54.56 19.35-10.15 0-27.35 0-54.55-19.36z" stroke="#b5d6ff" stroke-width="2" fill="#cfe4ff"/><path d="M300.05-783.77a6 6 0 0 1 6-6H457.9a6 6 0 0 1 6 6v109.95c-27.36-19.36-44.4-19.36-54.73-19.36-16.38 0-38.17 19.36-54.56 19.36-10.15 0-27.35 0-54.55-19.36z" stroke="#b5d6ff" stroke-width="2" fill="#cfe4ff"/><path d="M309.15-773.54a6 6 0 0 1 6-6H467a6 6 0 0 1 6 6v109.95c-27.36-19.35-44.4-19.35-54.73-19.35-16.38 0-38.17 19.36-54.56 19.36-10.14 0-27.35 0-54.55-19.35z" stroke="#b5d6ff" stroke-width="2" fill="#cfe4ff"/><use xlink:href="#R" transform="matrix(1,0,0,1,314.15248838379995,-774.5378270269302) translate(45.808641975308646 34.09027777777778)"/><use xlink:href="#S" transform="matrix(1,0,0,1,314.15248838379995,-774.5378270269302) translate(6.456790123456798 60.75694444444445)"/><use xlink:href="#T" transform="matrix(1,0,0,1,314.15248838379995,-774.5378270269302) translate(86.51851851851852 60.75694444444445)"/><path d="M290.95-597.87a6 6 0 0 1 6-6H448.8a6 6 0 0 1 6 6v114.2c-27.37-20.08-44.4-20.08-54.73-20.08-16.38 0-38.18 20.08-54.56 20.08-10.15 0-27.35 0-54.55-20.08z" stroke="#b5d6ff" stroke-width="2" fill="#cfe4ff"/><path d="M300.05-587.26a6 6 0 0 1 6-6H457.9a6 6 0 0 1 6 6v114.2c-27.36-20.08-44.4-20.08-54.73-20.08-16.38 0-38.17 20.07-54.56 20.07-10.15 0-27.35 0-54.55-20.07z" stroke="#b5d6ff" stroke-width="2" fill="#cfe4ff"/><path d="M309.15-576.66a6 6 0 0 1 6-6H467a6 6 0 0 1 6 6v114.2c-27.36-20.08-44.4-20.08-54.73-20.08-16.38 0-38.17 20.08-54.56 20.08-10.14 0-27.35 0-54.55-20.08z" stroke="#b5d6ff" stroke-width="2" fill="#cfe4ff"/><use xlink:href="#U" transform="matrix(1,0,0,1,314.15248838379995,-577.6571140031155) translate(28.97530864197531 23.27777777777778)"/><use xlink:href="#V" transform="matrix(1,0,0,1,314.15248838379995,-577.6571140031155) translate(18.14197530864198 49.94444444444445)"/><use xlink:href="#W" transform="matrix(1,0,0,1,314.15248838379995,-577.6571140031155) translate(122.89506172839506 49.94444444444445)"/><use xlink:href="#X" transform="matrix(1,0,0,1,314.15248838379995,-577.6571140031155) translate(-0.006172839506163541 76.61111111111111)"/><path d="M-993.8-365.63v62.1" stroke="#3a414a" stroke-width="3" fill="none"/><path d="M-992.34-365.6h-2.95v-.8l2.96-1.46z" stroke="#3a414a" stroke-width=".05" fill="#3a414a"/><path d="M-993.8-287.78l-4.65-14.26h9.27z" stroke="#3a414a" stroke-width="3" fill="#3a414a"/><path d="M-1000.2-279.8a10.67 10.67 0 0 1 12.8 0l67.2 50.4a6 6 0 0 1 0 9.6l-67.2 50.4a10.67 10.67 0 0 1-12.8 0l-67.2-50.4a6 6 0 0 1 0-9.6z" stroke="#1071e5" stroke-width="2" fill="#fff"/><use xlink:href="#Q" transform="matrix(1,0,0,1,-1068.8120944445998,-279.5855135128686) translate(28.801296296296286 59.02777777777778)"/><path d="M-1084.84-694a6 6 0 0 1 6-6H-927a6 6 0 0 1 6 6v109.95c-27.35-19.36-44.4-19.36-54.72-19.36-16.38 0-38.17 19.35-54.56 19.35-10.16 0-27.36 0-54.56-19.36z" stroke="#b5d6ff" stroke-width="2" fill="#cfe4ff"/><path d="M-1075.74-683.77a6 6 0 0 1 6-6h151.85a6 6 0 0 1 6 6v109.95c-27.35-19.36-44.4-19.36-54.7-19.36-16.4 0-38.2 19.36-54.57 19.36-10.16 0-27.37 0-54.57-19.36z" stroke="#b5d6ff" stroke-width="2" fill="#cfe4ff"/><path d="M-1066.63-673.54a6 6 0 0 1 6-6h151.84a6 6 0 0 1 6 6v109.95c-27.35-19.35-44.4-19.35-54.7-19.35-16.4 0-38.2 19.36-54.57 19.36-10.16 0-27.36 0-54.56-19.35z" stroke="#b5d6ff" stroke-width="2" fill="#cfe4ff"/><use xlink:href="#Y" transform="matrix(1,0,0,1,-1061.6331271708277,-674.5378270269302) translate(45.808641975308646 34.09027777777778)"/><use xlink:href="#S" transform="matrix(1,0,0,1,-1061.6331271708277,-674.5378270269302) translate(6.456790123456798 60.75694444444445)"/><use xlink:href="#T" transform="matrix(1,0,0,1,-1061.6331271708277,-674.5378270269302) translate(86.51851851851852 60.75694444444445)"/><path d="M-1084.84-497.87a6 6 0 0 1 6-6H-927a6 6 0 0 1 6 6v114.2c-27.35-20.08-44.4-20.08-54.72-20.08-16.38 0-38.17 20.08-54.56 20.08-10.16 0-27.36 0-54.56-20.08z" stroke="#b5d6ff" stroke-width="2" fill="#cfe4ff"/><path d="M-1075.74-487.26a6 6 0 0 1 6-6h151.85a6 6 0 0 1 6 6v114.2c-27.35-20.08-44.4-20.08-54.7-20.08-16.4 0-38.2 20.07-54.57 20.07-10.16 0-27.37 0-54.57-20.07z" stroke="#b5d6ff" stroke-width="2" fill="#cfe4ff"/><path d="M-1066.63-476.66a6 6 0 0 1 6-6h151.84a6 6 0 0 1 6 6v114.2c-27.35-20.08-44.4-20.08-54.7-20.08-16.4 0-38.2 20.08-54.57 20.08-10.16 0-27.36 0-54.56-20.08z" stroke="#b5d6ff" stroke-width="2" fill="#cfe4ff"/><use xlink:href="#U" transform="matrix(1,0,0,1,-1061.6331271708277,-477.65711400311545) translate(28.97530864197531 23.27777777777778)"/><use xlink:href="#V" transform="matrix(1,0,0,1,-1061.6331271708277,-477.65711400311545) translate(18.14197530864198 49.94444444444445)"/><use xlink:href="#W" transform="matrix(1,0,0,1,-1061.6331271708277,-477.65711400311545) translate(122.89506172839506 49.94444444444445)"/><use xlink:href="#X" transform="matrix(1,0,0,1,-1061.6331271708277,-477.65711400311545) translate(-0.006172839506163541 76.61111111111111)"/><path d="M384.95-456.46a6 6 0 0 1 6-6h88a6 6 0 0 1 6 6v48a6 6 0 0 1-6 6h-88a6 6 0 0 1-6-6z" stroke="#000" stroke-opacity="0" stroke-width="2" fill="#fff" fill-opacity="0"/><g><use xlink:href="#Z" transform="matrix(1,0,0,1,389.9515288269424,-457.46205431840747) translate(-1.7901234567901199 29.444444444444443)"/></g><path d="M-990.2-347.52a6 6 0 0 1 6-6h88a6 6 0 0 1 6 6v48a6 6 0 0 1-6 6h-88a6 6 0 0 1-6-6z" stroke="#000" stroke-opacity="0" stroke-width="2" fill="#fff" fill-opacity="0"/><g><use xlink:href="#Z" transform="matrix(1,0,0,1,-985.2069703583395,-348.52378391563803) translate(-1.7901234567901199 29.444444444444443)"/></g><path d="M290.95-159.3a8 8 0 0 1 8-8h166.98a8 8 0 0 1 8 8v47.9a8 8 0 0 1-8 8H298.95a8 8 0 0 1-8-8z" stroke="#3a414a" fill="#dedeff"/><g><use xlink:href="#p" transform="matrix(1,0,0,1,296.50823020224294,-161.7357604675746) translate(35.1358024691358 31.423277777777777)"/><use xlink:href="#q" transform="matrix(1,0,0,1,296.50823020224294,-161.7357604675746) translate(72.85185185185185 31.423277777777777)"/></g><path d="M290.95-17.53a8 8 0 0 1 8-8h166.98a8 8 0 0 1 8 8v52.16a8 8 0 0 1-8 8H298.95a8 8 0 0 1-8-8z" stroke="#3a414a" fill="#dedeff"/><g><use xlink:href="#aa" transform="matrix(1,0,0,1,296.50823020224294,-19.96853285401619) translate(60.1358024691358 25.110777777777777)"/><use xlink:href="#ab" transform="matrix(1,0,0,1,296.50823020224294,-19.96853285401619) translate(25.62962962962963 51.77744444444445)"/></g><path d="M-915.3-224.6h120.76a12 12 0 0 0 12-12v-447.8a12 12 0 0 1 12-12h17.67" stroke="#333" stroke-width="3" fill="none"/><path d="M-915.27-223.1h-1.7l.04-.2.12-1.3-.13-1.28-.05-.18h1.7z" stroke="#333" stroke-width=".05" fill="#333"/><path d="M-737.1-696.4l-14.27 4.62v-9.27z" stroke="#333" stroke-width="3" fill="#333"/><path d="M-569.75-696.4h382.68M-569.7-696.4h-1.55" stroke="#3a414a" stroke-width="3" fill="none"/><path d="M-171.3-696.4l-14.27 4.62v-9.27z" stroke="#3a414a" stroke-width="3" fill="#3a414a"/><path d="M-569.75-138.88h63.18M-569.7-138.88h-1.55" stroke="#3a414a" stroke-width="3" fill="none"/><path d="M-490.8-138.88l-14.27 4.64v-9.27z" stroke="#3a414a" stroke-width="3" fill="#3a414a"/><path d="M-85.45-638.88v277.26M-85.45-638.84v-1.54" stroke="#3a414a" stroke-width="3" fill="none"/><path d="M-85.45-345.86l-4.64-14.26h9.28z" stroke="#3a414a" stroke-width="3" fill="#3a414a"/><path d="M-385.68-201.63V-274a6 6 0 0 1 6-6h182.38M-385.68-201.66v1.53" stroke="#3a414a" stroke-width="3" fill="none"/><path d="M-181.53-280l-14.27 4.63v-9.26z" stroke="#3a414a" stroke-width="3" fill="#3a414a"/><path d="M-385.68-76.13V-6a6 6 0 0 0 6 6h178.56M-385.68-76.1v-1.53" stroke="#3a414a" stroke-width="3" fill="none"/><path d="M-185.35 0l-14.27 4.63v-9.27z" stroke="#3a414a" stroke-width="3" fill="#3a414a"/><path d="M-100-62v-45.35a6 6 0 0 1 6-6h72.38" stroke="#3a414a" stroke-width="3" fill="none"/><path d="M-98.53-60.5h-2.94v-1.54h2.94z" stroke="#3a414a" stroke-width=".05" fill="#3a414a"/><path d="M-5.85-113.35l-14.27 4.63V-118z" stroke="#3a414a" stroke-width="3" fill="#3a414a"/><path d="M-95.68-222.47v53.07a6 6 0 0 0 6 6h68.06" stroke="#3a414a" stroke-width="3" fill="none"/><path d="M-94.2-222.43h-2.95v-.85l2.95-1.37z" stroke="#3a414a" stroke-width=".05" fill="#3a414a"/><path d="M-5.85-163.4l-14.27 4.63v-9.27z" stroke="#3a414a" stroke-width="3" fill="#3a414a"/><path d="M381.97-666.5v41M381.97-666.46V-668" stroke="#3a414a" stroke-width="3" fill="none"/><path d="M381.97-609.72L377.34-624h9.27z" stroke="#3a414a" stroke-width="3" fill="#3a414a"/><path d="M-993.8-566.5v41M-993.8-566.46V-568" stroke="#3a414a" stroke-width="3" fill="none"/><path d="M-993.8-509.72l-4.65-14.27h9.27z" stroke="#3a414a" stroke-width="3" fill="#3a414a"/><path d="M383.2-466.23v62.77M383.2-466.2v-1.53" stroke="#3a414a" stroke-width="3" fill="none"/><path d="M383.2-387.7l-4.64-14.26h9.27z" stroke="#3a414a" stroke-width="3" fill="#3a414a"/><path d="M-993.8-164.75v13.87a12 12 0 0 0 12 12h228.93M-993.8-164.7v-1.55" stroke="#333" stroke-width="3" fill="none"/><path d="M-737.1-138.88l-14.27 4.64v-9.27z" stroke="#333" stroke-width="3" fill="#333"/><path d="M162.5-135.35H269.83M162.54-135.35H161" stroke="#333" stroke-width="3" fill="none"/><path d="M285.6-135.35l-14.27 4.64V-140z" stroke="#333" stroke-width="3" fill="#333"/><path d="M381.97-264.75v76.33M381.97-264.7v-1.55" stroke="#333" stroke-width="3" fill="none"/><path d="M381.97-172.65l-4.63-14.27h9.27z" stroke="#333" stroke-width="3" fill="#333"/><path d="M382.44-101.4v54.75M382.44-101.36v-1.54" stroke="#3a414a" stroke-width="3" fill="none"/><path d="M382.44-30.88l-4.64-14.27h9.27z" stroke="#3a414a" stroke-width="3" fill="#3a414a"/><defs><path fill="#333" d="M140-251c80 0 125 45 125 126S219 4 139 4C58 4 15-44 15-125s44-126 125-126zm-1 214c52 0 73-35 73-88 0-50-21-86-72-86-52 0-73 35-73 86s22 88 72 88" id="ac"/><path fill="#333" d="M25 0v-261h50V0H25" id="ad"/><path fill="#333" d="M88-194c31-1 46 15 58 34l-1-101h50l1 261h-48c-2-10 0-23-3-31C134-8 116 4 84 4 32 4 16-41 15-95c0-56 19-97 73-99zm17 164c33 0 40-30 41-66 1-37-9-64-41-64s-38 30-39 65c0 43 13 65 39 65" id="ae"/><g id="a"><use transform="matrix(0.061728395061728385,0,0,0.061728395061728385,0,0)" xlink:href="#ac"/><use transform="matrix(0.061728395061728385,0,0,0.061728395061728385,17.28395061728395,0)" xlink:href="#ad"/><use transform="matrix(0.061728395061728385,0,0,0.061728395061728385,23.456790123456788,0)" xlink:href="#ae"/></g><path fill="#333" d="M24-248c93 1 206-16 204 79-1 75-69 88-152 82V0H24v-248zm52 121c47 0 100 7 100-41 0-47-54-39-100-39v80" id="af"/><path fill="#333" d="M110-194c64 0 96 36 96 99 0 64-35 99-97 99-61 0-95-36-95-99 0-62 34-99 96-99zm-1 164c35 0 45-28 45-65 0-40-10-65-43-65-34 0-45 26-45 65 0 36 10 65 43 65" id="ag"/><path fill="#333" d="M25-224v-37h50v37H25zM25 0v-190h50V0H25" id="ah"/><path fill="#333" d="M135-194c87-1 58 113 63 194h-50c-7-57 23-157-34-157-59 0-34 97-39 157H25l-1-190h47c2 12-1 28 3 38 12-26 28-41 61-42" id="ai"/><path fill="#333" d="M195-6C206 82 75 100 31 46c-4-6-6-13-8-21l49-6c3 16 16 24 34 25 40 0 42-37 40-79-11 22-30 35-61 35-53 0-70-43-70-97 0-56 18-96 73-97 30 0 46 14 59 34l2-30h47zm-90-29c32 0 41-27 41-63 0-35-9-62-40-62-32 0-39 29-40 63 0 36 9 62 39 62" id="aj"/><g id="b"><use transform="matrix(0.061728395061728385,0,0,0.061728395061728385,0,0)" xlink:href="#af"/><use transform="matrix(0.061728395061728385,0,0,0.061728395061728385,14.814814814814813,0)" xlink:href="#ag"/><use transform="matrix(0.061728395061728385,0,0,0.061728395061728385,28.33333333333333,0)" xlink:href="#ad"/><use transform="matrix(0.061728395061728385,0,0,0.061728395061728385,34.50617283950616,0)" xlink:href="#ad"/><use transform="matrix(0.061728395061728385,0,0,0.061728395061728385,40.679012345679,0)" xlink:href="#ah"/><use transform="matrix(0.061728395061728385,0,0,0.061728395061728385,46.85185185185183,0)" xlink:href="#ai"/><use transform="matrix(0.061728395061728385,0,0,0.061728395061728385,60.37037037037035,0)" xlink:href="#aj"/></g><path fill="#333" d="M24-248c120-7 223 5 221 122C244-46 201 0 124 0H24v-248zM76-40c74 7 117-18 117-86 0-67-45-88-117-82v168" id="ak"/><path fill="#333" d="M133-34C117-15 103 5 69 4 32 3 11-16 11-54c-1-60 55-63 116-61 1-26-3-47-28-47-18 1-26 9-28 27l-52-2c7-38 36-58 82-57s74 22 75 68l1 82c-1 14 12 18 25 15v27c-30 8-71 5-69-32zm-48 3c29 0 43-24 42-57-32 0-66-3-65 30 0 17 8 27 23 27" id="al"/><path fill="#333" d="M115-3C79 11 28 4 28-45v-112H4v-33h27l15-45h31v45h36v33H77v99c-1 23 16 31 38 25v30" id="am"/><g id="c"><use transform="matrix(0.061728395061728385,0,0,0.061728395061728385,0,0)" xlink:href="#ak"/><use transform="matrix(0.061728395061728385,0,0,0.061728395061728385,15.987654320987652,0)" xlink:href="#al"/><use transform="matrix(0.061728395061728385,0,0,0.061728395061728385,28.33333333333333,0)" xlink:href="#am"/><use transform="matrix(0.061728395061728385,0,0,0.061728395061728385,35.679012345679006,0)" xlink:href="#al"/></g><path fill="#333" d="M169-182c-1-43-94-46-97-3 18 66 151 10 154 114 3 95-165 93-204 36-6-8-10-19-12-30l50-8c3 46 112 56 116 5-17-69-150-10-154-114-4-87 153-88 188-35 5 8 8 18 10 28" id="an"/><path fill="#333" d="M137-138c1-29-70-34-71-4 15 46 118 7 119 86 1 83-164 76-172 9l43-7c4 19 20 25 44 25 33 8 57-30 24-41C81-84 22-81 20-136c-2-80 154-74 161-7" id="ao"/><path fill="#333" d="M190-63c-7 42-38 67-86 67-59 0-84-38-90-98-12-110 154-137 174-36l-49 2c-2-19-15-32-35-32-30 0-35 28-38 64-6 74 65 87 74 30" id="ap"/><g id="d"><use transform="matrix(0.061728395061728385,0,0,0.061728395061728385,0,0)" xlink:href="#an"/><use transform="matrix(0.061728395061728385,0,0,0.061728395061728385,14.814814814814813,0)" xlink:href="#am"/><use transform="matrix(0.061728395061728385,0,0,0.061728395061728385,22.16049382716049,0)" xlink:href="#al"/><use transform="matrix(0.061728395061728385,0,0,0.061728395061728385,34.50617283950616,0)" xlink:href="#am"/><use transform="matrix(0.061728395061728385,0,0,0.061728395061728385,41.85185185185184,0)" xlink:href="#ah"/><use transform="matrix(0.061728395061728385,0,0,0.061728395061728385,48.02469135802468,0)" xlink:href="#ao"/><use transform="matrix(0.061728395061728385,0,0,0.061728395061728385,60.37037037037036,0)" xlink:href="#am"/><use transform="matrix(0.061728395061728385,0,0,0.061728395061728385,67.71604938271604,0)" xlink:href="#ah"/><use transform="matrix(0.061728395061728385,0,0,0.061728395061728385,73.88888888888887,0)" xlink:href="#ap"/><use transform="matrix(0.061728395061728385,0,0,0.061728395061728385,86.23456790123456,0)" xlink:href="#ao"/></g><path fill="#333" d="M230 0l2-204L168 0h-37L68-204 70 0H24v-248h70l56 185 57-185h69V0h-46" id="aq"/><path fill="#333" d="M185-48c-13 30-37 53-82 52C43 2 14-33 14-96s30-98 90-98c62 0 83 45 84 108H66c0 31 8 55 39 56 18 0 30-7 34-22zm-45-69c5-46-57-63-70-21-2 6-4 13-4 21h74" id="ar"/><g id="e"><use transform="matrix(0.061728395061728385,0,0,0.061728395061728385,0,0)" xlink:href="#aq"/><use transform="matrix(0.061728395061728385,0,0,0.061728395061728385,18.456790123456788,0)" xlink:href="#ag"/><use transform="matrix(0.061728395061728385,0,0,0.061728395061728385,31.975308641975303,0)" xlink:href="#ae"/><use transform="matrix(0.061728395061728385,0,0,0.061728395061728385,45.49382716049382,0)" xlink:href="#ar"/><use transform="matrix(0.061728395061728385,0,0,0.061728395061728385,57.8395061728395,0)" xlink:href="#ad"/></g><path fill="#333" d="M67-93c0 74 22 123 53 168H70C40 30 18-18 18-93s22-123 52-168h50c-32 44-53 94-53 168" id="as"/><path fill="#333" d="M135-150c-39-12-60 13-60 57V0H25l-1-190h47c2 13-1 29 3 40 6-28 27-53 61-41v41" id="at"/><path fill="#333" d="M102-93c0 74-22 123-52 168H0C30 29 54-18 53-93c0-74-22-123-53-168h50c30 45 52 94 52 168" id="au"/><g id="f"><use transform="matrix(0.061728395061728385,0,0,0.061728395061728385,0,0)" xlink:href="#as"/><use transform="matrix(0.061728395061728385,0,0,0.061728395061728385,7.345679012345678,0)" xlink:href="#aq"/><use transform="matrix(0.061728395061728385,0,0,0.061728395061728385,25.802469135802465,0)" xlink:href="#at"/><use transform="matrix(0.061728395061728385,0,0,0.061728395061728385,34.44444444444444,0)" xlink:href="#af"/><use transform="matrix(0.061728395061728385,0,0,0.061728395061728385,49.25925925925925,0)" xlink:href="#au"/></g><path fill="#333" d="M114-157C55-157 80-60 75 0H25v-261h50l-1 109c12-26 28-41 61-42 86-1 58 113 63 194h-50c-7-57 23-157-34-157" id="av"/><g id="g"><use transform="matrix(0.061728395061728385,0,0,0.061728395061728385,0,0)" xlink:href="#aq"/><use transform="matrix(0.061728395061728385,0,0,0.061728395061728385,18.456790123456788,0)" xlink:href="#al"/><use transform="matrix(0.061728395061728385,0,0,0.061728395061728385,30.802469135802465,0)" xlink:href="#ap"/><use transform="matrix(0.061728395061728385,0,0,0.061728395061728385,43.14814814814814,0)" xlink:href="#av"/><use transform="matrix(0.061728395061728385,0,0,0.061728395061728385,56.66666666666666,0)" xlink:href="#ah"/><use transform="matrix(0.061728395061728385,0,0,0.061728395061728385,62.83950617283949,0)" xlink:href="#ai"/><use transform="matrix(0.061728395061728385,0,0,0.061728395061728385,76.35802469135801,0)" xlink:href="#ar"/></g><path fill="#333" d="M24 0v-248h52v208h133V0H24" id="aw"/><g id="h"><use transform="matrix(0.061728395061728385,0,0,0.061728395061728385,0,0)" xlink:href="#aw"/><use transform="matrix(0.061728395061728385,0,0,0.061728395061728385,13.518518518518515,0)" xlink:href="#ar"/><use transform="matrix(0.061728395061728385,0,0,0.061728395061728385,25.864197530864192,0)" xlink:href="#al"/><use transform="matrix(0.061728395061728385,0,0,0.061728395061728385,38.20987654320987,0)" xlink:href="#at"/><use transform="matrix(0.061728395061728385,0,0,0.061728395061728385,46.85185185185185,0)" xlink:href="#ai"/><use transform="matrix(0.061728395061728385,0,0,0.061728395061728385,60.37037037037037,0)" xlink:href="#ah"/><use transform="matrix(0.061728395061728385,0,0,0.061728395061728385,66.5432098765432,0)" xlink:href="#ai"/><use transform="matrix(0.061728395061728385,0,0,0.061728395061728385,80.06172839506172,0)" xlink:href="#aj"/></g><g id="i"><use transform="matrix(0.061728395061728385,0,0,0.061728395061728385,0,0)" xlink:href="#aq"/><use transform="matrix(0.061728395061728385,0,0,0.061728395061728385,18.456790123456788,0)" xlink:href="#ag"/><use transform="matrix(0.061728395061728385,0,0,0.061728395061728385,31.975308641975303,0)" xlink:href="#ae"/><use transform="matrix(0.061728395061728385,0,0,0.061728395061728385,45.49382716049382,0)" xlink:href="#ar"/><use transform="matrix(0.061728395061728385,0,0,0.061728395061728385,57.8395061728395,0)" xlink:href="#ad"/></g><path fill="#333" d="M175 0L67-191c6 58 2 128 3 191H24v-248h59L193-55c-6-58-2-129-3-193h46V0h-61" id="ax"/><path fill="#333" d="M231 0h-52l-39-155L100 0H48L-1-190h46L77-45c9-52 24-97 36-145h53l37 145 32-145h46" id="ay"/><g id="j"><use transform="matrix(0.061728395061728385,0,0,0.061728395061728385,0,0)" xlink:href="#ax"/><use transform="matrix(0.061728395061728385,0,0,0.061728395061728385,15.987654320987652,0)" xlink:href="#ar"/><use transform="matrix(0.061728395061728385,0,0,0.061728395061728385,28.33333333333333,0)" xlink:href="#ay"/></g><path fill="#333" d="M85 4C-2 5 27-109 22-190h50c7 57-23 150 33 157 60-5 35-97 40-157h50l1 190h-47c-2-12 1-28-3-38-12 25-28 42-61 42" id="az"/><path fill="#333" d="M128 0H69L1-190h53L99-40l48-150h52" id="aA"/><g id="k"><use transform="matrix(0.06172839506172839,0,0,0.06172839506172839,0,0)" xlink:href="#aq"/><use transform="matrix(0.06172839506172839,0,0,0.06172839506172839,18.456790123456788,0)" xlink:href="#az"/><use transform="matrix(0.06172839506172839,0,0,0.06172839506172839,31.9753086419753,0)" xlink:href="#ad"/><use transform="matrix(0.06172839506172839,0,0,0.06172839506172839,38.148148148148145,0)" xlink:href="#am"/><use transform="matrix(0.06172839506172839,0,0,0.06172839506172839,45.49382716049382,0)" xlink:href="#ah"/><use transform="matrix(0.06172839506172839,0,0,0.06172839506172839,51.666666666666664,0)" xlink:href="#ad"/><use transform="matrix(0.06172839506172839,0,0,0.06172839506172839,57.839506172839506,0)" xlink:href="#ar"/><use transform="matrix(0.06172839506172839,0,0,0.06172839506172839,70.18518518518519,0)" xlink:href="#aA"/><use transform="matrix(0.06172839506172839,0,0,0.06172839506172839,82.53086419753087,0)" xlink:href="#ar"/><use transform="matrix(0.06172839506172839,0,0,0.06172839506172839,94.87654320987656,0)" xlink:href="#ad"/></g><path fill="#333" d="M240-174c0 40-23 61-54 70L253 0h-59l-57-94H76V0H24v-248c93 4 217-23 216 74zM76-134c48-2 112 12 112-38 0-48-66-32-112-35v73" id="aB"/><g id="l"><use transform="matrix(0.06172839506172839,0,0,0.06172839506172839,0,0)" xlink:href="#aB"/><use transform="matrix(0.06172839506172839,0,0,0.06172839506172839,15.987654320987653,0)" xlink:href="#ar"/><use transform="matrix(0.06172839506172839,0,0,0.06172839506172839,28.333333333333332,0)" xlink:href="#aj"/><use transform="matrix(0.06172839506172839,0,0,0.06172839506172839,41.85185185185185,0)" xlink:href="#at"/><use transform="matrix(0.06172839506172839,0,0,0.06172839506172839,50.49382716049382,0)" xlink:href="#ar"/><use transform="matrix(0.06172839506172839,0,0,0.06172839506172839,62.8395061728395,0)" xlink:href="#ao"/><use transform="matrix(0.06172839506172839,0,0,0.06172839506172839,75.18518518518518,0)" xlink:href="#ao"/><use transform="matrix(0.06172839506172839,0,0,0.06172839506172839,87.53086419753086,0)" xlink:href="#ah"/><use transform="matrix(0.06172839506172839,0,0,0.06172839506172839,93.7037037037037,0)" xlink:href="#ag"/><use transform="matrix(0.06172839506172839,0,0,0.06172839506172839,107.22222222222221,0)" xlink:href="#ai"/></g><path fill="#3a414a" d="M24-248c120-7 223 5 221 122C244-46 201 0 124 0H24v-248zM76-40c74 7 117-18 117-86 0-67-45-88-117-82v168" id="aC"/><path fill="#3a414a" d="M185-48c-13 30-37 53-82 52C43 2 14-33 14-96s30-98 90-98c62 0 83 45 84 108H66c0 31 8 55 39 56 18 0 30-7 34-22zm-45-69c5-46-57-63-70-21-2 6-4 13-4 21h74" id="aD"/><path fill="#3a414a" d="M220-157c-53 9-28 100-34 157h-49v-107c1-27-5-49-29-50C55-147 81-57 75 0H25l-1-190h47c2 12-1 28 3 38 10-53 101-56 108 0 13-22 24-43 59-42 82 1 51 116 57 194h-49v-107c-1-25-5-48-29-50" id="aE"/><path fill="#3a414a" d="M110-194c64 0 96 36 96 99 0 64-35 99-97 99-61 0-95-36-95-99 0-62 34-99 96-99zm-1 164c35 0 45-28 45-65 0-40-10-65-43-65-34 0-45 26-45 65 0 36 10 65 43 65" id="aF"/><path fill="#3a414a" d="M195-6C206 82 75 100 31 46c-4-6-6-13-8-21l49-6c3 16 16 24 34 25 40 0 42-37 40-79-11 22-30 35-61 35-53 0-70-43-70-97 0-56 18-96 73-97 30 0 46 14 59 34l2-30h47zm-90-29c32 0 41-27 41-63 0-35-9-62-40-62-32 0-39 29-40 63 0 36 9 62 39 62" id="aG"/><path fill="#3a414a" d="M135-150c-39-12-60 13-60 57V0H25l-1-190h47c2 13-1 29 3 40 6-28 27-53 61-41v41" id="aH"/><path fill="#3a414a" d="M133-34C117-15 103 5 69 4 32 3 11-16 11-54c-1-60 55-63 116-61 1-26-3-47-28-47-18 1-26 9-28 27l-52-2c7-38 36-58 82-57s74 22 75 68l1 82c-1 14 12 18 25 15v27c-30 8-71 5-69-32zm-48 3c29 0 43-24 42-57-32 0-66-3-65 30 0 17 8 27 23 27" id="aI"/><path fill="#3a414a" d="M135-194c53 0 70 44 70 98 0 56-19 98-73 100-31 1-45-17-59-34 3 33 2 69 2 105H25l-1-265h48c2 10 0 23 3 31 11-24 29-35 60-35zM114-30c33 0 39-31 40-66 0-38-9-64-40-64-56 0-55 130 0 130" id="aJ"/><path fill="#3a414a" d="M114-157C55-157 80-60 75 0H25v-261h50l-1 109c12-26 28-41 61-42 86-1 58 113 63 194h-50c-7-57 23-157-34-157" id="aK"/><path fill="#3a414a" d="M25-224v-37h50v37H25zM25 0v-190h50V0H25" id="aL"/><path fill="#3a414a" d="M190-63c-7 42-38 67-86 67-59 0-84-38-90-98-12-110 154-137 174-36l-49 2c-2-19-15-32-35-32-30 0-35 28-38 64-6 74 65 87 74 30" id="aM"/><g id="m"><use transform="matrix(0.06172839506172839,0,0,0.06172839506172839,0,0)" xlink:href="#aC"/><use transform="matrix(0.06172839506172839,0,0,0.06172839506172839,15.987654320987653,0)" xlink:href="#aD"/><use transform="matrix(0.06172839506172839,0,0,0.06172839506172839,28.333333333333332,0)" xlink:href="#aE"/><use transform="matrix(0.06172839506172839,0,0,0.06172839506172839,48.08641975308642,0)" xlink:href="#aF"/><use transform="matrix(0.06172839506172839,0,0,0.06172839506172839,61.60493827160494,0)" xlink:href="#aG"/><use transform="matrix(0.06172839506172839,0,0,0.06172839506172839,75.12345679012346,0)" xlink:href="#aH"/><use transform="matrix(0.06172839506172839,0,0,0.06172839506172839,83.76543209876543,0)" xlink:href="#aI"/><use transform="matrix(0.06172839506172839,0,0,0.06172839506172839,96.11111111111111,0)" xlink:href="#aJ"/><use transform="matrix(0.06172839506172839,0,0,0.06172839506172839,109.62962962962963,0)" xlink:href="#aK"/><use transform="matrix(0.06172839506172839,0,0,0.06172839506172839,123.14814814814815,0)" xlink:href="#aL"/><use transform="matrix(0.06172839506172839,0,0,0.06172839506172839,129.320987654321,0)" xlink:href="#aM"/></g><path fill="#3a414a" d="M24-248c93 1 206-16 204 79-1 75-69 88-152 82V0H24v-248zm52 121c47 0 100 7 100-41 0-47-54-39-100-39v80" id="aN"/><path fill="#3a414a" d="M135-194c87-1 58 113 63 194h-50c-7-57 23-157-34-157-59 0-34 97-39 157H25l-1-190h47c2 12-1 28 3 38 12-26 28-41 61-42" id="aO"/><path fill="#3a414a" d="M137-138c1-29-70-34-71-4 15 46 118 7 119 86 1 83-164 76-172 9l43-7c4 19 20 25 44 25 33 8 57-30 24-41C81-84 22-81 20-136c-2-80 154-74 161-7" id="aP"/><path fill="#3a414a" d="M115-3C79 11 28 4 28-45v-112H4v-33h27l15-45h31v45h36v33H77v99c-1 23 16 31 38 25v30" id="aQ"/><path fill="#3a414a" d="M123 10C108 53 80 86 19 72V37c35 8 53-11 59-39L3-190h52l48 148c12-52 28-100 44-148h51" id="aR"/><g id="n"><use transform="matrix(0.06172839506172839,0,0,0.06172839506172839,0,0)" xlink:href="#aN"/><use transform="matrix(0.06172839506172839,0,0,0.06172839506172839,14.814814814814813,0)" xlink:href="#aH"/><use transform="matrix(0.06172839506172839,0,0,0.06172839506172839,23.456790123456788,0)" xlink:href="#aF"/><use transform="matrix(0.06172839506172839,0,0,0.06172839506172839,36.9753086419753,0)" xlink:href="#aJ"/><use transform="matrix(0.06172839506172839,0,0,0.06172839506172839,50.49382716049382,0)" xlink:href="#aD"/><use transform="matrix(0.06172839506172839,0,0,0.06172839506172839,62.8395061728395,0)" xlink:href="#aO"/><use transform="matrix(0.06172839506172839,0,0,0.06172839506172839,76.35802469135801,0)" xlink:href="#aP"/><use transform="matrix(0.06172839506172839,0,0,0.06172839506172839,88.7037037037037,0)" xlink:href="#aL"/><use transform="matrix(0.06172839506172839,0,0,0.06172839506172839,94.87654320987653,0)" xlink:href="#aQ"/><use transform="matrix(0.06172839506172839,0,0,0.06172839506172839,102.22222222222221,0)" xlink:href="#aR"/></g><path fill="#3a414a" d="M169-182c-1-43-94-46-97-3 18 66 151 10 154 114 3 95-165 93-204 36-6-8-10-19-12-30l50-8c3 46 112 56 116 5-17-69-150-10-154-114-4-87 153-88 188-35 5 8 8 18 10 28" id="aS"/><g id="o"><use transform="matrix(0.06172839506172839,0,0,0.06172839506172839,0,0)" xlink:href="#aS"/><use transform="matrix(0.06172839506172839,0,0,0.06172839506172839,14.814814814814813,0)" xlink:href="#aM"/><use transform="matrix(0.06172839506172839,0,0,0.06172839506172839,27.160493827160494,0)" xlink:href="#aF"/><use transform="matrix(0.06172839506172839,0,0,0.06172839506172839,40.67901234567901,0)" xlink:href="#aH"/><use transform="matrix(0.06172839506172839,0,0,0.06172839506172839,49.32098765432099,0)" xlink:href="#aD"/><use transform="matrix(0.06172839506172839,0,0,0.06172839506172839,61.666666666666664,0)" xlink:href="#aP"/></g><g id="p"><use transform="matrix(0.06172839506172839,0,0,0.06172839506172839,0,0)" xlink:href="#aq"/><use transform="matrix(0.06172839506172839,0,0,0.06172839506172839,18.456790123456788,0)" xlink:href="#aw"/></g><g id="q"><use transform="matrix(0.06172839506172839,0,0,0.06172839506172839,0,0)" xlink:href="#aq"/><use transform="matrix(0.06172839506172839,0,0,0.06172839506172839,18.456790123456788,0)" xlink:href="#ag"/><use transform="matrix(0.06172839506172839,0,0,0.06172839506172839,31.9753086419753,0)" xlink:href="#ae"/><use transform="matrix(0.06172839506172839,0,0,0.06172839506172839,45.49382716049382,0)" xlink:href="#ar"/><use transform="matrix(0.06172839506172839,0,0,0.06172839506172839,57.8395061728395,0)" xlink:href="#ad"/></g><path fill="#333" d="M220-157c-53 9-28 100-34 157h-49v-107c1-27-5-49-29-50C55-147 81-57 75 0H25l-1-190h47c2 12-1 28 3 38 10-53 101-56 108 0 13-22 24-43 59-42 82 1 51 116 57 194h-49v-107c-1-25-5-48-29-50" id="aT"/><path fill="#333" d="M123 10C108 53 80 86 19 72V37c35 8 53-11 59-39L3-190h52l48 148c12-52 28-100 44-148h51" id="aU"/><g id="r"><use transform="matrix(0.06172839506172839,0,0,0.06172839506172839,0,0)" xlink:href="#ak"/><use transform="matrix(0.06172839506172839,0,0,0.06172839506172839,15.987654320987653,0)" xlink:href="#az"/><use transform="matrix(0.06172839506172839,0,0,0.06172839506172839,29.50617283950617,0)" xlink:href="#aT"/><use transform="matrix(0.06172839506172839,0,0,0.06172839506172839,49.25925925925925,0)" xlink:href="#aT"/><use transform="matrix(0.06172839506172839,0,0,0.06172839506172839,69.01234567901234,0)" xlink:href="#aU"/></g><path fill="#333" d="M147 0H94L2-248h55l64 206c17-72 42-137 63-206h54" id="aV"/><path fill="#333" d="M135-194c52 0 70 43 70 98 0 56-19 99-73 100-30 1-46-15-58-35L72 0H24l1-261h50v104c11-23 29-37 60-37zM114-30c31 0 40-27 40-66 0-37-7-63-39-63s-41 28-41 65c0 36 8 64 40 64" id="aW"/><path fill="#333" d="M4 7l51-268h42L46 7H4" id="aX"/><path fill="#333" d="M135-194c53 0 70 44 70 98 0 56-19 98-73 100-31 1-45-17-59-34 3 33 2 69 2 105H25l-1-265h48c2 10 0 23 3 31 11-24 29-35 60-35zM114-30c33 0 39-31 40-66 0-38-9-64-40-64-56 0-55 130 0 130" id="aY"/><g id="s"><use transform="matrix(0.06172839506172839,0,0,0.06172839506172839,0,0)" xlink:href="#aV"/><use transform="matrix(0.06172839506172839,0,0,0.06172839506172839,13.580246913580245,0)" xlink:href="#al"/><use transform="matrix(0.06172839506172839,0,0,0.06172839506172839,25.925925925925924,0)" xlink:href="#at"/><use transform="matrix(0.06172839506172839,0,0,0.06172839506172839,34.5679012345679,0)" xlink:href="#ah"/><use transform="matrix(0.06172839506172839,0,0,0.06172839506172839,40.74074074074074,0)" xlink:href="#al"/><use transform="matrix(0.06172839506172839,0,0,0.06172839506172839,53.08641975308642,0)" xlink:href="#aW"/><use transform="matrix(0.06172839506172839,0,0,0.06172839506172839,66.60493827160494,0)" xlink:href="#ad"/><use transform="matrix(0.06172839506172839,0,0,0.06172839506172839,72.77777777777777,0)" xlink:href="#ar"/><use transform="matrix(0.06172839506172839,0,0,0.06172839506172839,85.12345679012346,0)" xlink:href="#ao"/><use transform="matrix(0.06172839506172839,0,0,0.06172839506172839,97.46913580246914,0)" xlink:href="#aX"/><use transform="matrix(0.06172839506172839,0,0,0.06172839506172839,103.64197530864197,0)" xlink:href="#ak"/><use transform="matrix(0.06172839506172839,0,0,0.06172839506172839,119.62962962962963,0)" xlink:href="#at"/><use transform="matrix(0.06172839506172839,0,0,0.06172839506172839,128.2716049382716,0)" xlink:href="#ag"/><use transform="matrix(0.06172839506172839,0,0,0.06172839506172839,141.7901234567901,0)" xlink:href="#aY"/></g><path fill="#333" d="M238-95c0 69-44 99-111 99C63 4 22-25 22-93v-155h51v151c-1 38 19 59 55 60 90 1 49-130 58-211h52v153" id="aZ"/><g id="t"><use transform="matrix(0.06172839506172839,0,0,0.06172839506172839,0,0)" xlink:href="#aZ"/><use transform="matrix(0.06172839506172839,0,0,0.06172839506172839,15.987654320987653,0)" xlink:href="#ai"/><use transform="matrix(0.06172839506172839,0,0,0.06172839506172839,29.50617283950617,0)" xlink:href="#ai"/><use transform="matrix(0.06172839506172839,0,0,0.06172839506172839,43.02469135802469,0)" xlink:href="#ap"/><use transform="matrix(0.06172839506172839,0,0,0.06172839506172839,55.37037037037037,0)" xlink:href="#ar"/><use transform="matrix(0.06172839506172839,0,0,0.06172839506172839,67.71604938271605,0)" xlink:href="#ao"/><use transform="matrix(0.06172839506172839,0,0,0.06172839506172839,80.06172839506173,0)" xlink:href="#ao"/><use transform="matrix(0.06172839506172839,0,0,0.06172839506172839,92.40740740740742,0)" xlink:href="#al"/><use transform="matrix(0.06172839506172839,0,0,0.06172839506172839,104.7530864197531,0)" xlink:href="#at"/><use transform="matrix(0.06172839506172839,0,0,0.06172839506172839,113.39506172839508,0)" xlink:href="#aU"/></g><path fill="#333" d="M76-208v77h127v40H76V0H24v-248h183v40H76" id="ba"/><g id="u"><use transform="matrix(0.06172839506172839,0,0,0.06172839506172839,0,0)" xlink:href="#ba"/><use transform="matrix(0.06172839506172839,0,0,0.06172839506172839,13.518518518518517,0)" xlink:href="#ar"/><use transform="matrix(0.06172839506172839,0,0,0.06172839506172839,25.864197530864196,0)" xlink:href="#al"/><use transform="matrix(0.06172839506172839,0,0,0.06172839506172839,38.20987654320987,0)" xlink:href="#am"/><use transform="matrix(0.06172839506172839,0,0,0.06172839506172839,45.55555555555555,0)" xlink:href="#az"/><use transform="matrix(0.06172839506172839,0,0,0.06172839506172839,59.07407407407407,0)" xlink:href="#at"/><use transform="matrix(0.06172839506172839,0,0,0.06172839506172839,67.71604938271605,0)" xlink:href="#ar"/><use transform="matrix(0.06172839506172839,0,0,0.06172839506172839,80.06172839506173,0)" xlink:href="#ao"/></g><path fill="#3a414a" d="M143 4C61 4 22-44 18-125c-5-107 100-154 193-111 17 8 29 25 37 43l-32 9c-13-25-37-40-76-40-61 0-88 39-88 99 0 61 29 100 91 101 35 0 62-11 79-27v-45h-74v-28h105v86C228-13 192 4 143 4" id="bb"/><path fill="#3a414a" d="M114-163C36-179 61-72 57 0H25l-1-190h30c1 12-1 29 2 39 6-27 23-49 58-41v29" id="bc"/><path fill="#3a414a" d="M24-231v-30h32v30H24zM24 0v-190h32V0H24" id="bd"/><path fill="#3a414a" d="M85-194c31 0 48 13 60 33l-1-100h32l1 261h-30c-2-10 0-23-3-31C134-8 116 4 85 4 32 4 16-35 15-94c0-66 23-100 70-100zm9 24c-40 0-46 34-46 75 0 40 6 74 45 74 42 0 51-32 51-76 0-42-9-74-50-73" id="be"/><g id="v"><use transform="matrix(0.055555555555555546,0,0,0.055555555555555546,0,0)" xlink:href="#bb"/><use transform="matrix(0.055555555555555546,0,0,0.055555555555555546,15.555555555555554,0)" xlink:href="#bc"/><use transform="matrix(0.055555555555555546,0,0,0.055555555555555546,22.166666666666664,0)" xlink:href="#bd"/><use transform="matrix(0.055555555555555546,0,0,0.055555555555555546,26.555555555555554,0)" xlink:href="#be"/></g><path fill="#3a414a" d="M185-189c-5-48-123-54-124 2 14 75 158 14 163 119 3 78-121 87-175 55-17-10-28-26-33-46l33-7c5 56 141 63 141-1 0-78-155-14-162-118-5-82 145-84 179-34 5 7 8 16 11 25" id="bf"/><path fill="#3a414a" d="M100-194c63 0 86 42 84 106H49c0 40 14 67 53 68 26 1 43-12 49-29l28 8c-11 28-37 45-77 45C44 4 14-33 15-96c1-61 26-98 85-98zm52 81c6-60-76-77-97-28-3 7-6 17-6 28h103" id="bg"/><path fill="#3a414a" d="M141-36C126-15 110 5 73 4 37 3 15-17 15-53c-1-64 63-63 125-63 3-35-9-54-41-54-24 1-41 7-42 31l-33-3c5-37 33-52 76-52 45 0 72 20 72 64v82c-1 20 7 32 28 27v20c-31 9-61-2-59-35zM48-53c0 20 12 33 32 33 41-3 63-29 60-74-43 2-92-5-92 41" id="bh"/><path fill="#3a414a" d="M96-169c-40 0-48 33-48 73s9 75 48 75c24 0 41-14 43-38l32 2c-6 37-31 61-74 61-59 0-76-41-82-99-10-93 101-131 147-64 4 7 5 14 7 22l-32 3c-4-21-16-35-41-35" id="bi"/><path fill="#3a414a" d="M106-169C34-169 62-67 57 0H25v-261h32l-1 103c12-21 28-36 61-36 89 0 53 116 60 194h-32v-121c2-32-8-49-39-48" id="bj"/><g id="w"><use transform="matrix(0.055555555555555546,0,0,0.055555555555555546,0,0)" xlink:href="#bf"/><use transform="matrix(0.055555555555555546,0,0,0.055555555555555546,13.33333333333333,0)" xlink:href="#bg"/><use transform="matrix(0.055555555555555546,0,0,0.055555555555555546,24.44444444444444,0)" xlink:href="#bh"/><use transform="matrix(0.055555555555555546,0,0,0.055555555555555546,35.55555555555555,0)" xlink:href="#bc"/><use transform="matrix(0.055555555555555546,0,0,0.055555555555555546,42.16666666666666,0)" xlink:href="#bi"/><use transform="matrix(0.055555555555555546,0,0,0.055555555555555546,52.16666666666666,0)" xlink:href="#bj"/></g><path fill="#3a414a" d="M212-179c-10-28-35-45-73-45-59 0-87 40-87 99 0 60 29 101 89 101 43 0 62-24 78-52l27 14C228-24 195 4 139 4 59 4 22-46 18-125c-6-104 99-153 187-111 19 9 31 26 39 46" id="bk"/><path fill="#3a414a" d="M137 0h-34L2-248h35l83 218 83-218h36" id="bl"/><g id="x"><use transform="matrix(0.055555555555555546,0,0,0.055555555555555546,0,0)" xlink:href="#bk"/><use transform="matrix(0.055555555555555546,0,0,0.055555555555555546,14.388888888888886,0)" xlink:href="#bl"/></g><path fill="#3a414a" d="M30-248c87 1 191-15 191 75 0 78-77 80-158 76V0H30v-248zm33 125c57 0 124 11 124-50 0-59-68-47-124-48v98" id="bm"/><path fill="#3a414a" d="M210-169c-67 3-38 105-44 169h-31v-121c0-29-5-50-35-48C34-165 62-65 56 0H25l-1-190h30c1 10-1 24 2 32 10-44 99-50 107 0 11-21 27-35 58-36 85-2 47 119 55 194h-31v-121c0-29-5-49-35-48" id="bn"/><path fill="#3a414a" d="M59-47c-2 24 18 29 38 22v24C64 9 27 4 27-40v-127H5v-23h24l9-43h21v43h35v23H59v120" id="bo"/><g id="z"><use transform="matrix(0.055555555555555546,0,0,0.055555555555555546,0,0)" xlink:href="#bm"/><use transform="matrix(0.055555555555555546,0,0,0.055555555555555546,13.33333333333333,0)" xlink:href="#bh"/><use transform="matrix(0.055555555555555546,0,0,0.055555555555555546,24.44444444444444,0)" xlink:href="#bc"/><use transform="matrix(0.055555555555555546,0,0,0.055555555555555546,31.05555555555555,0)" xlink:href="#bh"/><use transform="matrix(0.055555555555555546,0,0,0.055555555555555546,42.16666666666666,0)" xlink:href="#bn"/><use transform="matrix(0.055555555555555546,0,0,0.055555555555555546,58.777777777777764,0)" xlink:href="#bg"/><use transform="matrix(0.055555555555555546,0,0,0.055555555555555546,69.88888888888887,0)" xlink:href="#bo"/><use transform="matrix(0.055555555555555546,0,0,0.055555555555555546,75.44444444444443,0)" xlink:href="#bg"/><use transform="matrix(0.055555555555555546,0,0,0.055555555555555546,86.55555555555554,0)" xlink:href="#bc"/></g><path fill="#3a414a" d="M24 0v-261h32V0H24" id="bp"/><path fill="#3a414a" d="M100-194c62-1 85 37 85 99 1 63-27 99-86 99S16-35 15-95c0-66 28-99 85-99zM99-20c44 1 53-31 53-75 0-43-8-75-51-75s-53 32-53 75 10 74 51 75" id="bq"/><path fill="#3a414a" d="M117-194c89-4 53 116 60 194h-32v-121c0-31-8-49-39-48C34-167 62-67 57 0H25l-1-190h30c1 10-1 24 2 32 11-22 29-35 61-36" id="br"/><g id="A"><use transform="matrix(0.055555555555555546,0,0,0.055555555555555546,0,0)" xlink:href="#bf"/><use transform="matrix(0.055555555555555546,0,0,0.055555555555555546,13.33333333333333,0)" xlink:href="#bg"/><use transform="matrix(0.055555555555555546,0,0,0.055555555555555546,24.44444444444444,0)" xlink:href="#bp"/><use transform="matrix(0.055555555555555546,0,0,0.055555555555555546,28.83333333333333,0)" xlink:href="#bg"/><use transform="matrix(0.055555555555555546,0,0,0.055555555555555546,39.944444444444436,0)" xlink:href="#bi"/><use transform="matrix(0.055555555555555546,0,0,0.055555555555555546,49.944444444444436,0)" xlink:href="#bo"/><use transform="matrix(0.055555555555555546,0,0,0.055555555555555546,55.49999999999999,0)" xlink:href="#bd"/><use transform="matrix(0.055555555555555546,0,0,0.055555555555555546,59.88888888888888,0)" xlink:href="#bq"/><use transform="matrix(0.055555555555555546,0,0,0.055555555555555546,70.99999999999999,0)" xlink:href="#br"/></g><path fill="#3a414a" d="M87 75C49 33 22-17 22-94c0-76 28-126 65-167h31c-38 41-64 92-64 168S80 34 118 75H87" id="bs"/><path fill="#3a414a" d="M33 0v-38h34V0H33" id="bt"/><path fill="#3a414a" d="M177-190C167-65 218 103 67 71c-23-6-38-20-44-43l32-5c15 47 100 32 89-28v-30C133-14 115 1 83 1 29 1 15-40 15-95c0-56 16-97 71-98 29-1 48 16 59 35 1-10 0-23 2-32h30zM94-22c36 0 50-32 50-73 0-42-14-75-50-75-39 0-46 34-46 75s6 73 46 73" id="bu"/><g id="B"><use transform="matrix(0.055555555555555546,0,0,0.055555555555555546,0,0)" xlink:href="#bs"/><use transform="matrix(0.055555555555555546,0,0,0.055555555555555546,6.61111111111111,0)" xlink:href="#bg"/><use transform="matrix(0.055555555555555546,0,0,0.055555555555555546,17.722222222222218,0)" xlink:href="#bt"/><use transform="matrix(0.055555555555555546,0,0,0.055555555555555546,23.27777777777777,0)" xlink:href="#bu"/><use transform="matrix(0.055555555555555546,0,0,0.055555555555555546,34.38888888888888,0)" xlink:href="#bt"/></g><path fill="#3a414a" d="M158-156l-14 65h45v19h-49L124 0h-19l15-72H56L41 0H22l15-72H2v-19h39l14-65H11v-19h48l15-71h20l-16 71h64l16-71h19l-16 71h37v19h-40zm-83 0L61-91h63l14-65H75" id="bv"/><use transform="matrix(0.055555555555555546,0,0,0.055555555555555546,0,0)" xlink:href="#bv" id="C"/><path fill="#3a414a" d="M101-234c-31-9-42 10-38 44h38v23H63V0H32v-167H5v-23h27c-7-52 17-82 69-68v24" id="bw"/><g id="D"><use transform="matrix(0.055555555555555546,0,0,0.055555555555555546,0,0)" xlink:href="#bq"/><use transform="matrix(0.055555555555555546,0,0,0.055555555555555546,11.111111111111109,0)" xlink:href="#bw"/></g><path fill="#3a414a" d="M30 0v-248h33v221h125V0H30" id="bx"/><path fill="#3a414a" d="M135-143c-3-34-86-38-87 0 15 53 115 12 119 90S17 21 10-45l28-5c4 36 97 45 98 0-10-56-113-15-118-90-4-57 82-63 122-42 12 7 21 19 24 35" id="by"/><g id="E"><use transform="matrix(0.055555555555555546,0,0,0.055555555555555546,0,0)" xlink:href="#bx"/><use transform="matrix(0.055555555555555546,0,0,0.055555555555555546,11.111111111111109,0)" xlink:href="#bh"/><use transform="matrix(0.055555555555555546,0,0,0.055555555555555546,22.222222222222218,0)" xlink:href="#bo"/><use transform="matrix(0.055555555555555546,0,0,0.055555555555555546,27.77777777777777,0)" xlink:href="#bd"/><use transform="matrix(0.055555555555555546,0,0,0.055555555555555546,32.16666666666666,0)" xlink:href="#br"/><use transform="matrix(0.055555555555555546,0,0,0.055555555555555546,43.277777777777764,0)" xlink:href="#bq"/><use transform="matrix(0.055555555555555546,0,0,0.055555555555555546,54.38888888888887,0)" xlink:href="#by"/></g><g id="F"><use transform="matrix(0.055555555555555546,0,0,0.055555555555555546,0,0)" xlink:href="#bw"/><use transform="matrix(0.055555555555555546,0,0,0.055555555555555546,5.5555555555555545,0)" xlink:href="#bq"/><use transform="matrix(0.055555555555555546,0,0,0.055555555555555546,16.666666666666664,0)" xlink:href="#bc"/></g><path fill="#3a414a" d="M160-131c35 5 61 23 61 61C221 17 115-2 30 0v-248c76 3 177-17 177 60 0 33-19 50-47 57zm-97-11c50-1 110 9 110-42 0-47-63-36-110-37v79zm0 115c55-2 124 14 124-45 0-56-70-42-124-44v89" id="bz"/><g id="G"><use transform="matrix(0.055555555555555546,0,0,0.055555555555555546,0,0)" xlink:href="#bz"/><use transform="matrix(0.055555555555555546,0,0,0.055555555555555546,13.33333333333333,0)" xlink:href="#bd"/><use transform="matrix(0.055555555555555546,0,0,0.055555555555555546,17.722222222222218,0)" xlink:href="#be"/><use transform="matrix(0.055555555555555546,0,0,0.055555555555555546,28.83333333333333,0)" xlink:href="#bg"/><use transform="matrix(0.055555555555555546,0,0,0.055555555555555546,39.944444444444436,0)" xlink:href="#br"/></g><path fill="#3a414a" d="M0 4l72-265h28L28 4H0" id="bA"/><use transform="matrix(0.055555555555555546,0,0,0.055555555555555546,0,0)" xlink:href="#bA" id="H"/><path fill="#3a414a" d="M127-220V0H93v-220H8v-28h204v28h-85" id="bB"/><g id="I"><use transform="matrix(0.055555555555555546,0,0,0.055555555555555546,0,0)" xlink:href="#bB"/><use transform="matrix(0.055555555555555546,0,0,0.055555555555555546,9.944444444444443,0)" xlink:href="#bq"/><use transform="matrix(0.055555555555555546,0,0,0.055555555555555546,21.05555555555555,0)" xlink:href="#bo"/><use transform="matrix(0.055555555555555546,0,0,0.055555555555555546,26.611111111111104,0)" xlink:href="#bh"/><use transform="matrix(0.055555555555555546,0,0,0.055555555555555546,37.722222222222214,0)" xlink:href="#bp"/></g><g id="J"><use transform="matrix(0.055555555555555546,0,0,0.055555555555555546,0,0)" xlink:href="#bx"/><use transform="matrix(0.055555555555555546,0,0,0.055555555555555546,11.111111111111109,0)" xlink:href="#bh"/><use transform="matrix(0.055555555555555546,0,0,0.055555555555555546,22.222222222222218,0)" xlink:href="#bo"/><use transform="matrix(0.055555555555555546,0,0,0.055555555555555546,27.77777777777777,0)" xlink:href="#bd"/><use transform="matrix(0.055555555555555546,0,0,0.055555555555555546,32.16666666666666,0)" xlink:href="#br"/><use transform="matrix(0.055555555555555546,0,0,0.055555555555555546,43.277777777777764,0)" xlink:href="#bq"/><use transform="matrix(0.055555555555555546,0,0,0.055555555555555546,54.38888888888887,0)" xlink:href="#by"/></g><path fill="#3a414a" d="M18-150v-26h174v26H18zm0 90v-26h174v26H18" id="bC"/><use transform="matrix(0.055555555555555546,0,0,0.055555555555555546,0,0)" xlink:href="#bC" id="K"/><path fill="#3a414a" d="M115-194c55 1 70 41 70 98S169 2 115 4C84 4 66-9 55-30l1 105H24l-1-265h31l2 30c10-21 28-34 59-34zm-8 174c40 0 45-34 45-75s-6-73-45-74c-42 0-51 32-51 76 0 43 10 73 51 73" id="bD"/><path fill="#3a414a" d="M179-190L93 31C79 59 56 82 12 73V49c39 6 53-20 64-50L1-190h34L92-34l54-156h33" id="bE"/><g id="L"><use transform="matrix(0.055555555555555546,0,0,0.055555555555555546,0,0)" xlink:href="#bm"/><use transform="matrix(0.055555555555555546,0,0,0.055555555555555546,13.33333333333333,0)" xlink:href="#bc"/><use transform="matrix(0.055555555555555546,0,0,0.055555555555555546,19.94444444444444,0)" xlink:href="#bq"/><use transform="matrix(0.055555555555555546,0,0,0.055555555555555546,31.05555555555555,0)" xlink:href="#bD"/><use transform="matrix(0.055555555555555546,0,0,0.055555555555555546,42.16666666666666,0)" xlink:href="#bg"/><use transform="matrix(0.055555555555555546,0,0,0.055555555555555546,53.277777777777764,0)" xlink:href="#br"/><use transform="matrix(0.055555555555555546,0,0,0.055555555555555546,64.38888888888887,0)" xlink:href="#by"/><use transform="matrix(0.055555555555555546,0,0,0.055555555555555546,74.38888888888887,0)" xlink:href="#bd"/><use transform="matrix(0.055555555555555546,0,0,0.055555555555555546,78.77777777777776,0)" xlink:href="#bo"/><use transform="matrix(0.055555555555555546,0,0,0.055555555555555546,84.33333333333331,0)" xlink:href="#bE"/></g><g id="M"><use transform="matrix(0.055555555555555546,0,0,0.055555555555555546,0,0)" xlink:href="#bw"/><use transform="matrix(0.055555555555555546,0,0,0.055555555555555546,5.5555555555555545,0)" xlink:href="#bq"/><use transform="matrix(0.055555555555555546,0,0,0.055555555555555546,16.666666666666664,0)" xlink:href="#bc"/></g><g id="N"><use transform="matrix(0.055555555555555546,0,0,0.055555555555555546,0,0)" xlink:href="#bo"/><use transform="matrix(0.055555555555555546,0,0,0.055555555555555546,5.5555555555555545,0)" xlink:href="#bq"/></g><g id="O"><use transform="matrix(0.055555555555555546,0,0,0.055555555555555546,0,0)" xlink:href="#bl"/><use transform="matrix(0.055555555555555546,0,0,0.055555555555555546,12.22222222222222,0)" xlink:href="#bq"/><use transform="matrix(0.055555555555555546,0,0,0.055555555555555546,23.33333333333333,0)" xlink:href="#bo"/><use transform="matrix(0.055555555555555546,0,0,0.055555555555555546,28.888888888888882,0)" xlink:href="#bg"/></g><path fill="#3a414a" d="M33-261c38 41 65 92 65 168S71 34 33 75H2C39 34 66-17 66-93S39-220 2-261h31" id="bF"/><g id="P"><use transform="matrix(0.055555555555555546,0,0,0.055555555555555546,0,0)" xlink:href="#bz"/><use transform="matrix(0.055555555555555546,0,0,0.055555555555555546,13.33333333333333,0)" xlink:href="#bd"/><use transform="matrix(0.055555555555555546,0,0,0.055555555555555546,17.722222222222218,0)" xlink:href="#be"/><use transform="matrix(0.055555555555555546,0,0,0.055555555555555546,28.83333333333333,0)" xlink:href="#bg"/><use transform="matrix(0.055555555555555546,0,0,0.055555555555555546,39.944444444444436,0)" xlink:href="#br"/><use transform="matrix(0.055555555555555546,0,0,0.055555555555555546,51.05555555555554,0)" xlink:href="#bF"/></g><path fill="#3a414a" d="M76-208v77h127v40H76V0H24v-248h183v40H76" id="bG"/><path fill="#3a414a" d="M85 4C-2 5 27-109 22-190h50c7 57-23 150 33 157 60-5 35-97 40-157h50l1 190h-47c-2-12 1-28-3-38-12 25-28 42-61 42" id="bH"/><g id="Q"><use transform="matrix(0.06172839506172839,0,0,0.06172839506172839,0,0)" xlink:href="#bG"/><use transform="matrix(0.06172839506172839,0,0,0.06172839506172839,13.518518518518517,0)" xlink:href="#aD"/><use transform="matrix(0.06172839506172839,0,0,0.06172839506172839,25.864197530864196,0)" xlink:href="#aI"/><use transform="matrix(0.06172839506172839,0,0,0.06172839506172839,38.20987654320987,0)" xlink:href="#aQ"/><use transform="matrix(0.06172839506172839,0,0,0.06172839506172839,45.55555555555555,0)" xlink:href="#bH"/><use transform="matrix(0.06172839506172839,0,0,0.06172839506172839,59.07407407407407,0)" xlink:href="#aH"/><use transform="matrix(0.06172839506172839,0,0,0.06172839506172839,67.71604938271605,0)" xlink:href="#aD"/><use transform="matrix(0.06172839506172839,0,0,0.06172839506172839,80.06172839506173,0)" xlink:href="#aP"/></g><path fill="#3a414a" d="M182-182c0 78-84 86-111 141h115V0H12c-6-101 99-100 120-180 1-22-12-31-33-32-23 0-32 14-35 34l-49-3c5-45 32-70 84-70 51 0 83 22 83 69" id="bI"/><path fill="#3a414a" d="M101-251c68 0 84 54 84 127C185-50 166 4 99 4S15-52 14-124c-1-75 17-127 87-127zm-1 216c37-5 36-46 36-89s4-89-36-89c-39 0-36 45-36 89 0 43-3 85 36 89" id="bJ"/><path fill="#3a414a" d="M165-50V0h-47v-50H5v-38l105-160h55v161h33v37h-33zm-47-37l2-116L46-87h72" id="bK"/><g id="R"><use transform="matrix(0.06172839506172839,0,0,0.06172839506172839,0,0)" xlink:href="#bI"/><use transform="matrix(0.06172839506172839,0,0,0.06172839506172839,12.345679012345679,0)" xlink:href="#bJ"/><use transform="matrix(0.06172839506172839,0,0,0.06172839506172839,24.691358024691358,0)" xlink:href="#bI"/><use transform="matrix(0.06172839506172839,0,0,0.06172839506172839,37.03703703703704,0)" xlink:href="#bK"/></g><path fill="#3a414a" d="M25 0v-261h50V0H25" id="bL"/><g id="S"><use transform="matrix(0.06172839506172839,0,0,0.06172839506172839,0,0)" xlink:href="#aN"/><use transform="matrix(0.06172839506172839,0,0,0.06172839506172839,14.814814814814813,0)" xlink:href="#aF"/><use transform="matrix(0.06172839506172839,0,0,0.06172839506172839,28.33333333333333,0)" xlink:href="#bL"/><use transform="matrix(0.06172839506172839,0,0,0.06172839506172839,34.50617283950617,0)" xlink:href="#bL"/><use transform="matrix(0.06172839506172839,0,0,0.06172839506172839,40.67901234567901,0)" xlink:href="#aL"/><use transform="matrix(0.06172839506172839,0,0,0.06172839506172839,46.851851851851855,0)" xlink:href="#aO"/><use transform="matrix(0.06172839506172839,0,0,0.06172839506172839,60.370370370370374,0)" xlink:href="#aG"/></g><g id="T"><use transform="matrix(0.06172839506172839,0,0,0.06172839506172839,0,0)" xlink:href="#aC"/><use transform="matrix(0.06172839506172839,0,0,0.06172839506172839,15.987654320987653,0)" xlink:href="#aI"/><use transform="matrix(0.06172839506172839,0,0,0.06172839506172839,28.333333333333332,0)" xlink:href="#aQ"/><use transform="matrix(0.06172839506172839,0,0,0.06172839506172839,35.67901234567901,0)" xlink:href="#aI"/></g><path fill="#3a414a" d="M140-251c80 0 125 45 125 126 0 70-33 111-92 124 6 28 34 38 68 31l-1 36C177 83 129 55 120 2 51-6 15-50 15-125c0-81 44-126 125-126zm-1 214c52 0 73-35 73-88 0-50-21-86-72-86-52 0-73 35-73 86s22 88 72 88" id="bM"/><g id="U"><use transform="matrix(0.06172839506172839,0,0,0.06172839506172839,0,0)" xlink:href="#bM"/><use transform="matrix(0.06172839506172839,0,0,0.06172839506172839,17.28395061728395,0)" xlink:href="#bH"/><use transform="matrix(0.06172839506172839,0,0,0.06172839506172839,30.80246913580247,0)" xlink:href="#aD"/><use transform="matrix(0.06172839506172839,0,0,0.06172839506172839,43.148148148148145,0)" xlink:href="#aP"/><use transform="matrix(0.06172839506172839,0,0,0.06172839506172839,55.49382716049382,0)" xlink:href="#aQ"/><use transform="matrix(0.06172839506172839,0,0,0.06172839506172839,62.8395061728395,0)" xlink:href="#aL"/><use transform="matrix(0.06172839506172839,0,0,0.06172839506172839,69.01234567901234,0)" xlink:href="#aF"/><use transform="matrix(0.06172839506172839,0,0,0.06172839506172839,82.53086419753086,0)" xlink:href="#aO"/></g><g id="V"><use transform="matrix(0.06172839506172839,0,0,0.06172839506172839,0,0)" xlink:href="#aS"/><use transform="matrix(0.06172839506172839,0,0,0.06172839506172839,14.814814814814813,0)" xlink:href="#aD"/><use transform="matrix(0.06172839506172839,0,0,0.06172839506172839,27.160493827160494,0)" xlink:href="#bL"/><use transform="matrix(0.06172839506172839,0,0,0.06172839506172839,33.333333333333336,0)" xlink:href="#aD"/><use transform="matrix(0.06172839506172839,0,0,0.06172839506172839,45.67901234567901,0)" xlink:href="#aM"/><use transform="matrix(0.06172839506172839,0,0,0.06172839506172839,58.02469135802469,0)" xlink:href="#aQ"/><use transform="matrix(0.06172839506172839,0,0,0.06172839506172839,65.37037037037037,0)" xlink:href="#aL"/><use transform="matrix(0.06172839506172839,0,0,0.06172839506172839,71.5432098765432,0)" xlink:href="#aF"/><use transform="matrix(0.06172839506172839,0,0,0.06172839506172839,85.06172839506172,0)" xlink:href="#aO"/></g><path fill="#3a414a" d="M125-100v72H85v-72H15v-39h70v-72h40v72h71v39h-71" id="bN"/><use transform="matrix(0.06172839506172839,0,0,0.06172839506172839,0,0)" xlink:href="#bN" id="W"/><g id="X"><use transform="matrix(0.06172839506172839,0,0,0.06172839506172839,0,0)" xlink:href="#aC"/><use transform="matrix(0.06172839506172839,0,0,0.06172839506172839,15.987654320987653,0)" xlink:href="#aD"/><use transform="matrix(0.06172839506172839,0,0,0.06172839506172839,28.333333333333332,0)" xlink:href="#aE"/><use transform="matrix(0.06172839506172839,0,0,0.06172839506172839,48.08641975308642,0)" xlink:href="#aF"/><use transform="matrix(0.06172839506172839,0,0,0.06172839506172839,61.60493827160494,0)" xlink:href="#aG"/><use transform="matrix(0.06172839506172839,0,0,0.06172839506172839,75.12345679012346,0)" xlink:href="#aH"/><use transform="matrix(0.06172839506172839,0,0,0.06172839506172839,83.76543209876543,0)" xlink:href="#aI"/><use transform="matrix(0.06172839506172839,0,0,0.06172839506172839,96.11111111111111,0)" xlink:href="#aJ"/><use transform="matrix(0.06172839506172839,0,0,0.06172839506172839,109.62962962962963,0)" xlink:href="#aK"/><use transform="matrix(0.06172839506172839,0,0,0.06172839506172839,123.14814814814815,0)" xlink:href="#aL"/><use transform="matrix(0.06172839506172839,0,0,0.06172839506172839,129.320987654321,0)" xlink:href="#aM"/><use transform="matrix(0.06172839506172839,0,0,0.06172839506172839,141.66666666666666,0)" xlink:href="#aP"/></g><g id="Y"><use transform="matrix(0.06172839506172839,0,0,0.06172839506172839,0,0)" xlink:href="#bI"/><use transform="matrix(0.06172839506172839,0,0,0.06172839506172839,12.345679012345679,0)" xlink:href="#bJ"/><use transform="matrix(0.06172839506172839,0,0,0.06172839506172839,24.691358024691358,0)" xlink:href="#bI"/><use transform="matrix(0.06172839506172839,0,0,0.06172839506172839,37.03703703703704,0)" xlink:href="#bJ"/></g><path fill="#3a414a" d="M67-125c0 53 21 87 73 88 37 1 54-22 65-47l45 17C233-25 199 4 140 4 58 4 20-42 15-125 8-235 124-281 211-232c18 10 29 29 36 50l-46 12c-8-25-30-41-62-41-52 0-71 34-72 86" id="bO"/><g id="Z"><use transform="matrix(0.06172839506172839,0,0,0.06172839506172839,0,0)" xlink:href="#bO"/><use transform="matrix(0.06172839506172839,0,0,0.06172839506172839,15.987654320987653,0)" xlink:href="#bL"/><use transform="matrix(0.06172839506172839,0,0,0.06172839506172839,22.160493827160494,0)" xlink:href="#aD"/><use transform="matrix(0.06172839506172839,0,0,0.06172839506172839,34.50617283950617,0)" xlink:href="#aI"/><use transform="matrix(0.06172839506172839,0,0,0.06172839506172839,46.85185185185185,0)" xlink:href="#aO"/><use transform="matrix(0.06172839506172839,0,0,0.06172839506172839,60.37037037037037,0)" xlink:href="#aL"/><use transform="matrix(0.06172839506172839,0,0,0.06172839506172839,66.5432098765432,0)" xlink:href="#aO"/><use transform="matrix(0.06172839506172839,0,0,0.06172839506172839,80.06172839506172,0)" xlink:href="#aG"/></g><g id="aa"><use transform="matrix(0.06172839506172839,0,0,0.06172839506172839,0,0)" xlink:href="#ba"/><use transform="matrix(0.06172839506172839,0,0,0.06172839506172839,13.518518518518517,0)" xlink:href="#ah"/><use transform="matrix(0.06172839506172839,0,0,0.06172839506172839,19.691358024691358,0)" xlink:href="#ai"/><use transform="matrix(0.06172839506172839,0,0,0.06172839506172839,33.20987654320987,0)" xlink:href="#al"/><use transform="matrix(0.06172839506172839,0,0,0.06172839506172839,45.55555555555555,0)" xlink:href="#ad"/></g><g id="ab"><use transform="matrix(0.06172839506172839,0,0,0.06172839506172839,0,0)" xlink:href="#af"/><use transform="matrix(0.06172839506172839,0,0,0.06172839506172839,14.814814814814813,0)" xlink:href="#at"/><use transform="matrix(0.06172839506172839,0,0,0.06172839506172839,23.456790123456788,0)" xlink:href="#ar"/><use transform="matrix(0.06172839506172839,0,0,0.06172839506172839,35.80246913580247,0)" xlink:href="#ae"/><use transform="matrix(0.06172839506172839,0,0,0.06172839506172839,49.32098765432099,0)" xlink:href="#ah"/><use transform="matrix(0.06172839506172839,0,0,0.06172839506172839,55.49382716049383,0)" xlink:href="#ap"/><use transform="matrix(0.06172839506172839,0,0,0.06172839506172839,67.8395061728395,0)" xlink:href="#am"/><use transform="matrix(0.06172839506172839,0,0,0.06172839506172839,75.18518518518519,0)" xlink:href="#ah"/><use transform="matrix(0.06172839506172839,0,0,0.06172839506172839,81.35802469135803,0)" xlink:href="#ag"/><use transform="matrix(0.06172839506172839,0,0,0.06172839506172839,94.87654320987654,0)" xlink:href="#ai"/><use transform="matrix(0.06172839506172839,0,0,0.06172839506172839,108.39506172839506,0)" xlink:href="#ao"/></g></defs></g></svg>